  0
SECTION
  2
HEADER
  9
$ACADVER
  1
AC1015
  9
$ACADMAINTVER
 70
    20
  9
$DWGCODEPAGE
  3
ANSI_1252
  9
$INSBASE
 10
0.0
 20
0.0
 30
0.0
  9
$EXTMIN
 10
-11.03553390593273
 20
-12.8104714118088
 30
0.0
  9
$EXTMAX
 10
232.5973605603761
 20
81.8799371616957
 30
0.0
  9
$LIMMIN
 10
-50.0
 20
-50.0
  9
$LIMMAX
 10
200.0
 20
100.0
  9
$ORTHOMODE
 70
     1
  9
$REGENMODE
 70
     1
  9
$FILLMODE
 70
     1
  9
$QTEXTMODE
 70
     0
  9
$MIRRTEXT
 70
     0
  9
$LTSCALE
 40
1.0
  9
$ATTMODE
 70
     1
  9
$TEXTSIZE
 40
2.5
  9
$TRACEWID
 40
1.0
  9
$TEXTSTYLE
  7
Standard
  9
$CLAYER
  8
WALLS
  9
$CELTYPE
  6
ByLayer
  9
$CECOLOR
 62
   256
  9
$CELTSCALE
 40
1.0
  9
$DISPSILH
 70
     0
  9
$DIMSCALE
 40
1.0
  9
$DIMASZ
 40
2.5
  9
$DIMEXO
 40
0.625
  9
$DIMDLI
 40
3.75
  9
$DIMRND
 40
0.0
  9
$DIMDLE
 40
0.0
  9
$DIMEXE
 40
1.25
  9
$DIMTP
 40
0.0
  9
$DIMTM
 40
0.0
  9
$DIMTXT
 40
2.5
  9
$DIMCEN
 40
2.5
  9
$DIMTSZ
 40
0.0
  9
$DIMTOL
 70
     0
  9
$DIMLIM
 70
     0
  9
$DIMTIH
 70
     0
  9
$DIMTOH
 70
     0
  9
$DIMSE1
 70
     0
  9
$DIMSE2
 70
     0
  9
$DIMTAD
 70
     1
  9
$DIMZIN
 70
     8
  9
$DIMBLK
  1

  9
$DIMASO
 70
     1
  9
$DIMSHO
 70
     1
  9
$DIMPOST
  1

  9
$DIMAPOST
  1

  9
$DIMALT
 70
     0
  9
$DIMALTD
 70
     3
  9
$DIMALTF
 40
0.03937007874016
  9
$DIMLFAC
 40
1.0
  9
$DIMTOFL
 70
     1
  9
$DIMTVP
 40
0.0
  9
$DIMTIX
 70
     0
  9
$DIMSOXD
 70
     0
  9
$DIMSAH
 70
     0
  9
$DIMBLK1
  1

  9
$DIMBLK2
  1

  9
$DIMSTYLE
  2
ISO-25
  9
$DIMCLRD
 70
     0
  9
$DIMCLRE
 70
     0
  9
$DIMCLRT
 70
     0
  9
$DIMTFAC
 40
1.0
  9
$DIMGAP
 40
0.625
  9
$DIMJUST
 70
     0
  9
$DIMSD1
 70
     0
  9
$DIMSD2
 70
     0
  9
$DIMTOLJ
 70
     0
  9
$DIMTZIN
 70
     8
  9
$DIMALTZ
 70
     0
  9
$DIMALTTZ
 70
     0
  9
$DIMUPT
 70
     0
  9
$DIMDEC
 70
     2
  9
$DIMTDEC
 70
     2
  9
$DIMALTU
 70
     2
  9
$DIMALTTD
 70
     3
  9
$DIMTXSTY
  7
Standard
  9
$DIMAUNIT
 70
     0
  9
$DIMADEC
 70
     0
  9
$DIMALTRND
 40
0.0
  9
$DIMAZIN
 70
     0
  9
$DIMDSEP
 70
    44
  9
$DIMATFIT
 70
     3
  9
$DIMFRAC
 70
     0
  9
$DIMLDRBLK
  1

  9
$DIMLUNIT
 70
     2
  9
$DIMLWD
 70
    -2
  9
$DIMLWE
 70
    -2
  9
$DIMTMOVE
 70
     0
  9
$LUNITS
 70
     2
  9
$LUPREC
 70
     4
  9
$SKETCHINC
 40
1.0
  9
$FILLETRAD
 40
0.0
  9
$AUNITS
 70
     0
  9
$AUPREC
 70
     0
  9
$MENU
  1
.
  9
$ELEVATION
 40
0.0
  9
$PELEVATION
 40
0.0
  9
$THICKNESS
 40
0.0
  9
$LIMCHECK
 70
     0
  9
$CHAMFERA
 40
0.0
  9
$CHAMFERB
 40
0.0
  9
$CHAMFERC
 40
0.0
  9
$CHAMFERD
 40
0.0
  9
$SKPOLY
 70
     0
  9
$TDCREATE
 40
2459242.192799213
  9
$TDUCREATE
 40
2459242.401132546
  9
$TDUPDATE
 40
2459257.698692419
  9
$TDUUPDATE
 40
2459257.907025752
  9
$TDINDWG
 40
4.3372281134
  9
$TDUSRTIMER
 40
4.3372226273
  9
$USRTIMER
 70
     1
  9
$ANGBASE
 50
0.0
  9
$ANGDIR
 70
     0
  9
$PDMODE
 70
     0
  9
$PDSIZE
 40
0.0
  9
$PLINEWID
 40
0.0
  9
$SPLFRAME
 70
     0
  9
$SPLINETYPE
 70
     6
  9
$SPLINESEGS
 70
     8
  9
$HANDSEED
  5
4C0
  9
$SURFTAB1
 70
     6
  9
$SURFTAB2
 70
     6
  9
$SURFTYPE
 70
     6
  9
$SURFU
 70
     6
  9
$SURFV
 70
     6
  9
$UCSBASE
  2

  9
$UCSNAME
  2

  9
$UCSORG
 10
0.0
 20
0.0
 30
0.0
  9
$UCSXDIR
 10
1.0
 20
0.0
 30
0.0
  9
$UCSYDIR
 10
0.0
 20
1.0
 30
0.0
  9
$UCSORTHOREF
  2

  9
$UCSORTHOVIEW
 70
     0
  9
$UCSORGTOP
 10
0.0
 20
0.0
 30
0.0
  9
$UCSORGBOTTOM
 10
0.0
 20
0.0
 30
0.0
  9
$UCSORGLEFT
 10
0.0
 20
0.0
 30
0.0
  9
$UCSORGRIGHT
 10
0.0
 20
0.0
 30
0.0
  9
$UCSORGFRONT
 10
0.0
 20
0.0
 30
0.0
  9
$UCSORGBACK
 10
0.0
 20
0.0
 30
0.0
  9
$PUCSBASE
  2

  9
$PUCSNAME
  2

  9
$PUCSORG
 10
0.0
 20
0.0
 30
0.0
  9
$PUCSXDIR
 10
1.0
 20
0.0
 30
0.0
  9
$PUCSYDIR
 10
0.0
 20
1.0
 30
0.0
  9
$PUCSORTHOREF
  2

  9
$PUCSORTHOVIEW
 70
     0
  9
$PUCSORGTOP
 10
0.0
 20
0.0
 30
0.0
  9
$PUCSORGBOTTOM
 10
0.0
 20
0.0
 30
0.0
  9
$PUCSORGLEFT
 10
0.0
 20
0.0
 30
0.0
  9
$PUCSORGRIGHT
 10
0.0
 20
0.0
 30
0.0
  9
$PUCSORGFRONT
 10
0.0
 20
0.0
 30
0.0
  9
$PUCSORGBACK
 10
0.0
 20
0.0
 30
0.0
  9
$USERI1
 70
     0
  9
$USERI2
 70
     0
  9
$USERI3
 70
     0
  9
$USERI4
 70
     0
  9
$USERI5
 70
     0
  9
$USERR1
 40
0.0
  9
$USERR2
 40
0.0
  9
$USERR3
 40
0.0
  9
$USERR4
 40
0.0
  9
$USERR5
 40
0.0
  9
$WORLDVIEW
 70
     1
  9
$SHADEDGE
 70
     3
  9
$SHADEDIF
 70
    70
  9
$TILEMODE
 70
     1
  9
$MAXACTVP
 70
    64
  9
$PINSBASE
 10
0.0
 20
0.0
 30
0.0
  9
$PLIMCHECK
 70
     0
  9
$PEXTMIN
 10
0.0
 20
0.0
 30
0.0
  9
$PEXTMAX
 10
0.0
 20
0.0
 30
0.0
  9
$PLIMMIN
 10
0.0
 20
0.0
  9
$PLIMMAX
 10
12.0
 20
9.0
  9
$UNITMODE
 70
     0
  9
$VISRETAIN
 70
     1
  9
$PLINEGEN
 70
     0
  9
$PSLTSCALE
 70
     1
  9
$TREEDEPTH
 70
  3020
  9
$CMLSTYLE
  2
Standard
  9
$CMLJUST
 70
     0
  9
$CMLSCALE
 40
20.0
  9
$PROXYGRAPHICS
 70
     1
  9
$MEASUREMENT
 70
     1
  9
$CELWEIGHT
370
    -1
  9
$ENDCAPS
280
     0
  9
$JOINSTYLE
280
     0
  9
$LWDISPLAY
290
     0
  9
$INSUNITS
 70
     4
  9
$HYPERLINKBASE
  1

  9
$STYLESHEET
  1

  9
$XEDIT
290
     1
  9
$CEPSNTYPE
380
     0
  9
$PSTYLEMODE
290
     1
  9
$FINGERPRINTGUID
  2
{FDEAD578-A652-11D2-9A35-0060089B3A3F}
  9
$VERSIONGUID
  2
{9B47C62E-E7D4-44CE-AE6E-6A8554777265}
  9
$EXTNAMES
290
     1
  9
$PSVPSCALE
 40
0.0
  9
$OLESTARTUP
290
     0
  0
ENDSEC
  0
SECTION
  2
CLASSES
  0
CLASS
  1
ACDBDICTIONARYWDFLT
  2
AcDbDictionaryWithDefault
  3
ObjectDBX Classes
 90
        0
280
     0
281
     0
  0
CLASS
  1
ACDBPLACEHOLDER
  2
AcDbPlaceHolder
  3
ObjectDBX Classes
 90
        0
280
     0
281
     0
  0
CLASS
  1
LAYOUT
  2
AcDbLayout
  3
ObjectDBX Classes
 90
        0
280
     0
281
     0
  0
CLASS
  1
DICTIONARYVAR
  2
AcDbDictionaryVar
  3
ObjectDBX Classes
 90
        0
280
     0
281
     0
  0
ENDSEC
  0
SECTION
  2
TABLES
  0
TABLE
  2
VPORT
  5
8
330
0
100
AcDbSymbolTable
 70
     7
  0
VPORT
  5
4B6
330
8
100
AcDbSymbolTableRecord
100
AcDbViewportTableRecord
  2
*Active
 70
     0
 10
0.0
 20
0.0
 11
1.0
 21
1.0
 12
115.3505036520749
 22
38.76599251766104
 13
0.0
 23
0.0
 14
1.0
 24
1.0
 15
10.0
 25
10.0
 16
0.0
 26
0.0
 36
1.0
 17
0.0
 27
0.0
 37
0.0
 40
124.7004280438147
 41
2.206134969325153
 42
50.0
 43
0.0
 44
0.0
 50
0.0
 51
0.0
 71
     0
 72
  1000
 73
     1
 74
     2
 75
     0
 76
     1
 77
     0
 78
     0
281
     0
 65
     1
110
0.0
120
0.0
130
0.0
111
1.0
121
0.0
131
0.0
112
0.0
122
1.0
132
0.0
 79
     0
146
0.0
  0
ENDTAB
  0
TABLE
  2
LTYPE
  5
5
330
0
100
AcDbSymbolTable
 70
     1
  0
LTYPE
  5
14
330
5
100
AcDbSymbolTableRecord
100
AcDbLinetypeTableRecord
  2
ByBlock
 70
     0
  3

 72
    65
 73
     0
 40
0.0
  0
LTYPE
  5
15
330
5
100
AcDbSymbolTableRecord
100
AcDbLinetypeTableRecord
  2
ByLayer
 70
     0
  3

 72
    65
 73
     0
 40
0.0
  0
LTYPE
  5
16
330
5
100
AcDbSymbolTableRecord
100
AcDbLinetypeTableRecord
  2
Continuous
 70
     0
  3
Solid line
 72
    65
 73
     0
 40
0.0
  0
ENDTAB
  0
TABLE
  2
LAYER
  5
2
330
0
100
AcDbSymbolTable
 70
    13
  0
LAYER
  5
10
330
2
100
AcDbSymbolTableRecord
100
AcDbLayerTableRecord
  2
0
 70
     0
 62
    -7
  6
Continuous
370
    -3
390
F
  0
LAYER
  5
98
330
2
100
AcDbSymbolTableRecord
100
AcDbLayerTableRecord
  2
BOTTOM
 70
     0
 62
   110
  6
Continuous
370
    -3
390
F
  0
LAYER
  5
99
330
2
100
AcDbSymbolTableRecord
100
AcDbLayerTableRecord
  2
WALLS
 70
     0
 62
    20
  6
Continuous
370
    -3
390
F
  0
LAYER
  5
BA
330
2
100
AcDbSymbolTableRecord
100
AcDbLayerTableRecord
  2
REF
 70
     0
 62
    52
  6
Continuous
370
    -3
390
F
  0
LAYER
  5
C9
330
2
100
AcDbSymbolTableRecord
100
AcDbLayerTableRecord
  2
SD_CARD
 70
     0
 62
   153
  6
Continuous
370
    -3
390
F
  0
LAYER
  5
DF
330
2
100
AcDbSymbolTableRecord
100
AcDbLayerTableRecord
  2
STANDOFF
 70
     0
 62
   200
  6
Continuous
370
    -3
390
F
  0
LAYER
  5
1BC
330
2
100
AcDbSymbolTableRecord
100
AcDbLayerTableRecord
  2
BOARD
 70
     0
 62
    82
  6
Continuous
370
    -3
390
F
  0
LAYER
  5
1CF
330
2
100
AcDbSymbolTableRecord
100
AcDbLayerTableRecord
  2
POST_HOLES
 70
     0
 62
   161
  6
Continuous
370
    -3
390
F
  0
LAYER
  5
1D0
330
2
100
AcDbSymbolTableRecord
100
AcDbLayerTableRecord
  2
POSTS
 70
     0
 62
   192
  6
Continuous
370
    -3
390
F
  0
LAYER
  5
2F2
330
2
100
AcDbSymbolTableRecord
100
AcDbLayerTableRecord
  2
SOCKET
 70
     0
 62
   113
  6
Continuous
370
    -3
390
F
  0
LAYER
  5
319
330
2
100
AcDbSymbolTableRecord
100
AcDbLayerTableRecord
  2
FEET
 70
     0
 62
   210
  6
Continuous
370
    -3
390
F
  0
LAYER
  5
35A
330
2
100
AcDbSymbolTableRecord
100
AcDbLayerTableRecord
  2
LOGO
 70
     0
 62
    51
  6
Continuous
370
    -3
390
F
  0
LAYER
  5
35B
330
2
100
AcDbSymbolTableRecord
100
AcDbLayerTableRecord
  2
COVER_EDGE
 70
     0
 62
   231
  6
Continuous
370
    -3
390
F
  0
ENDTAB
  0
TABLE
  2
STYLE
  5
3
330
0
100
AcDbSymbolTable
 70
     1
  0
STYLE
  5
11
330
3
100
AcDbSymbolTableRecord
100
AcDbTextStyleTableRecord
  2
Standard
 70
     0
 40
0.0
 41
1.0
 50
0.0
 71
     0
 42
2.5
  3
txt
  4

  0
ENDTAB
  0
TABLE
  2
VIEW
  5
6
330
0
100
AcDbSymbolTable
 70
     0
  0
ENDTAB
  0
TABLE
  2
UCS
  5
7
330
0
100
AcDbSymbolTable
 70
     0
  0
ENDTAB
  0
TABLE
  2
APPID
  5
9
330
0
100
AcDbSymbolTable
 70
     1
  0
APPID
  5
12
330
9
100
AcDbSymbolTableRecord
100
AcDbRegAppTableRecord
  2
ACAD
 70
     0
  0
ENDTAB
  0
TABLE
  2
DIMSTYLE
  5
A
330
0
100
AcDbSymbolTable
 70
     2
100
AcDbDimStyleTable
 71
     0
  0
DIMSTYLE
105
27
330
A
100
AcDbSymbolTableRecord
100
AcDbDimStyleTableRecord
  2
ISO-25
 70
     0
 41
2.5
 42
0.625
 43
3.75
 44
1.25
 73
     0
 74
     0
 77
     1
 78
     8
140
2.5
141
2.5
143
0.03937007874016
147
0.625
171
     3
172
     1
271
     2
272
     2
274
     3
278
    44
283
     0
284
     8
340
11
  0
DIMSTYLE
105
35C
330
A
100
AcDbSymbolTableRecord
100
AcDbDimStyleTableRecord
  2
Standard
 70
     0
340
11
  0
ENDTAB
  0
TABLE
  2
BLOCK_RECORD
  5
1
330
0
100
AcDbSymbolTable
 70
     1
  0
BLOCK_RECORD
  5
1F
330
1
100
AcDbSymbolTableRecord
100
AcDbBlockTableRecord
  2
*Model_Space
340
22
  0
BLOCK_RECORD
  5
50
330
1
100
AcDbSymbolTableRecord
100
AcDbBlockTableRecord
  2
*Paper_Space
340
51
  0
BLOCK_RECORD
  5
55
330
1
100
AcDbSymbolTableRecord
100
AcDbBlockTableRecord
  2
*Paper_Space0
340
56
  0
ENDTAB
  0
ENDSEC
  0
SECTION
  2
BLOCKS
  0
BLOCK
  5
20
330
1F
100
AcDbEntity
  8
0
100
AcDbBlockBegin
  2
*Model_Space
 70
     0
 10
0.0
 20
0.0
 30
0.0
  3
*Model_Space
  1

  0
ENDBLK
  5
21
330
1F
100
AcDbEntity
  8
0
100
AcDbBlockEnd
  0
BLOCK
  5
52
330
50
100
AcDbEntity
 67
     1
  8
0
100
AcDbBlockBegin
  2
*Paper_Space
 70
     0
 10
0.0
 20
0.0
 30
0.0
  3
*Paper_Space
  1

  0
ENDBLK
  5
53
330
50
100
AcDbEntity
 67
     1
  8
0
100
AcDbBlockEnd
  0
BLOCK
  5
57
330
55
100
AcDbEntity
  8
0
100
AcDbBlockBegin
  2
*Paper_Space0
 70
     0
 10
0.0
 20
0.0
 30
0.0
  3
*Paper_Space0
  1

  0
ENDBLK
  5
58
330
55
100
AcDbEntity
  8
0
100
AcDbBlockEnd
  0
ENDSEC
  0
SECTION
  2
ENTITIES
  0
LINE
  5
21F
330
1F
100
AcDbEntity
  8
WALLS
100
AcDbLine
 10
-10.0
 20
5.0
 30
0.0
 11
-10.0
 21
66.0
 31
0.0
  0
ARC
  5
222
330
1F
100
AcDbEntity
  8
WALLS
100
AcDbCircle
 10
-5.0
 20
5.0
 30
0.0
 40
5.0
100
AcDbArc
 50
180.0
 51
270.0
  0
ARC
  5
223
330
1F
100
AcDbEntity
  8
WALLS
100
AcDbCircle
 10
-5.0
 20
66.0
 30
0.0
 40
5.0
100
AcDbArc
 50
90.0
 51
180.0
  0
LINE
  5
228
330
1F
100
AcDbEntity
  8
BOARD
100
AcDbLine
 10
19.99999999999999
 20
60.49999999999999
 30
0.0
 11
73.0
 21
60.5
 31
0.0
  0
LINE
  5
229
330
1F
100
AcDbEntity
  8
BOARD
100
AcDbLine
 10
19.99999999999999
 20
10.49999999999999
 30
0.0
 11
73.0
 21
10.49999999999999
 31
0.0
  0
LINE
  5
22C
330
1F
100
AcDbEntity
  8
WALLS
100
AcDbLine
 10
-8.0
 20
5.0
 30
0.0
 11
-8.0
 21
66.0
 31
0.0
  0
LINE
  5
22E
330
1F
100
AcDbEntity
  8
BOARD
100
AcDbLine
 10
19.99999999999999
 20
10.49999999999999
 30
0.0
 11
19.99999999999999
 21
60.49999999999999
 31
0.0
  0
ARC
  5
230
330
1F
100
AcDbEntity
  8
WALLS
100
AcDbCircle
 10
-5.0
 20
5.0
 30
0.0
 40
3.0
100
AcDbArc
 50
180.0
 51
270.0
  0
ARC
  5
231
330
1F
100
AcDbEntity
  8
WALLS
100
AcDbCircle
 10
-5.0
 20
66.0
 30
0.0
 40
3.0
100
AcDbArc
 50
90.0
 51
180.0
  0
LINE
  5
24D
330
1F
100
AcDbEntity
  8
BOARD
100
AcDbLine
 10
85.0
 20
17.59999999999995
 30
0.0
 11
85.0
 21
47.59999999999995
 31
0.0
  0
LINE
  5
24E
330
1F
100
AcDbEntity
  8
BOARD
100
AcDbLine
 10
149.9999999999999
 20
17.59999999999995
 30
0.0
 11
149.9999999999999
 21
47.59999999999995
 31
0.0
  0
LINE
  5
250
330
1F
100
AcDbEntity
  8
BOARD
100
AcDbLine
 10
85.0
 20
47.59999999999995
 30
0.0
 11
149.9999999999999
 21
47.59999999999995
 31
0.0
  0
LINE
  5
251
330
1F
100
AcDbEntity
  8
BOARD
100
AcDbLine
 10
85.0
 20
17.59999999999995
 30
0.0
 11
149.9999999999999
 21
17.59999999999995
 31
0.0
  0
LINE
  5
252
330
1F
100
AcDbEntity
  8
WALLS
100
AcDbLine
 10
150.5
 20
4.999999999999998
 30
0.0
 11
150.5
 21
66.0
 31
0.0
  0
LINE
  5
253
330
1F
100
AcDbEntity
  8
WALLS
100
AcDbLine
 10
152.5
 20
5.0
 30
0.0
 11
152.5
 21
66.0
 31
0.0
  0
ARC
  5
254
330
1F
100
AcDbEntity
  8
WALLS
100
AcDbCircle
 10
147.5
 20
66.0
 30
0.0
 40
5.0
100
AcDbArc
 50
0.0
 51
90.0
  0
ARC
  5
255
330
1F
100
AcDbEntity
  8
WALLS
100
AcDbCircle
 10
147.5
 20
5.0
 30
0.0
 40
5.0
100
AcDbArc
 50
270.0
 51
0.0
  0
ARC
  5
258
330
1F
100
AcDbEntity
  8
WALLS
100
AcDbCircle
 10
147.5
 20
5.0
 30
0.0
 40
3.0
100
AcDbArc
 50
270.0
 51
0.0
  0
ARC
  5
259
330
1F
100
AcDbEntity
  8
WALLS
100
AcDbCircle
 10
147.5
 20
66.0
 30
0.0
 40
3.0
100
AcDbArc
 50
0.0
 51
90.0
  0
ARC
  5
28E
330
1F
100
AcDbEntity
  8
POSTS
100
AcDbCircle
 10
-5.0
 20
5.0
 30
0.0
 40
5.0
100
AcDbArc
 50
180.0
 51
270.0
  0
ARC
  5
292
330
1F
100
AcDbEntity
  8
POSTS
100
AcDbCircle
 10
-5.0
 20
66.0
 30
0.0
 40
5.0
100
AcDbArc
 50
90.0
 51
180.0
  0
ARC
  5
296
330
1F
100
AcDbEntity
  8
POSTS
100
AcDbCircle
 10
147.5
 20
66.0
 30
0.0
 40
5.0
100
AcDbArc
 50
0.0
 51
90.0
  0
ARC
  5
29A
330
1F
100
AcDbEntity
  8
POSTS
100
AcDbCircle
 10
147.5
 20
5.0
 30
0.0
 40
5.0
100
AcDbArc
 50
270.0
 51
0.0
  0
LINE
  5
2A4
330
1F
100
AcDbEntity
  8
POSTS
100
AcDbLine
 10
-5.0
 20
0.0
 30
0.0
 11
-1.0
 21
-0.0000000000000009
 31
0.0
  0
LINE
  5
2A5
330
1F
100
AcDbEntity
  8
POSTS
100
AcDbLine
 10
-10.0
 20
5.0
 30
0.0
 11
-10.0
 21
9.0
 31
0.0
  0
LINE
  5
2A6
330
1F
100
AcDbEntity
  8
POSTS
100
AcDbLine
 10
-10.0
 20
62.0
 30
0.0
 11
-10.0
 21
66.0
 31
0.0
  0
LINE
  5
2A7
330
1F
100
AcDbEntity
  8
POSTS
100
AcDbLine
 10
-5.0
 20
71.0
 30
0.0
 11
-0.9999999999999982
 21
71.0
 31
0.0
  0
LINE
  5
2A8
330
1F
100
AcDbEntity
  8
POSTS
100
AcDbLine
 10
143.5
 20
0.0
 30
0.0
 11
147.5
 21
0.0
 31
0.0
  0
LINE
  5
2A9
330
1F
100
AcDbEntity
  8
POSTS
100
AcDbLine
 10
152.5
 20
5.0
 30
0.0
 11
152.5
 21
9.0
 31
0.0
  0
LINE
  5
2AA
330
1F
100
AcDbEntity
  8
POSTS
100
AcDbLine
 10
152.5
 20
62.0
 30
0.0
 11
152.5
 21
66.0
 31
0.0
  0
LINE
  5
2AB
330
1F
100
AcDbEntity
  8
POSTS
100
AcDbLine
 10
147.5
 20
71.0
 30
0.0
 11
143.5
 21
71.0
 31
0.0
  0
LINE
  5
2B9
330
1F
100
AcDbEntity
  8
BOTTOM
100
AcDbLine
 10
-10.0
 20
5.0
 30
0.0
 11
-10.0
 21
66.0
 31
0.0
  0
LINE
  5
2BF
330
1F
100
AcDbEntity
  8
BOTTOM
100
AcDbLine
 10
152.5
 20
5.0
 30
0.0
 11
152.5
 21
66.0
 31
0.0
  0
ARC
  5
2C2
330
1F
100
AcDbEntity
  8
BOTTOM
100
AcDbCircle
 10
-5.0
 20
5.0
 30
0.0
 40
5.0
100
AcDbArc
 50
180.0
 51
270.0
  0
ARC
  5
2C3
330
1F
100
AcDbEntity
  8
BOTTOM
100
AcDbCircle
 10
-5.0
 20
66.0
 30
0.0
 40
5.0
100
AcDbArc
 50
90.0
 51
180.0
  0
ARC
  5
2C4
330
1F
100
AcDbEntity
  8
BOTTOM
100
AcDbCircle
 10
147.5
 20
66.0
 30
0.0
 40
5.0
100
AcDbArc
 50
0.0
 51
90.0
  0
ARC
  5
2C5
330
1F
100
AcDbEntity
  8
BOTTOM
100
AcDbCircle
 10
147.5
 20
5.0
 30
0.0
 40
5.0
100
AcDbArc
 50
270.0
 51
0.0
  0
CIRCLE
  5
2C8
330
1F
100
AcDbEntity
  8
POST_HOLES
100
AcDbCircle
 10
-5.0
 20
5.000000000000006
 30
0.0
 40
1.0
  0
CIRCLE
  5
2C9
330
1F
100
AcDbEntity
  8
POST_HOLES
100
AcDbCircle
 10
-4.999999999999987
 20
66.0
 30
0.0
 40
1.0
  0
CIRCLE
  5
2CA
330
1F
100
AcDbEntity
  8
POST_HOLES
100
AcDbCircle
 10
147.5
 20
66.0
 30
0.0
 40
1.0
  0
CIRCLE
  5
2CB
330
1F
100
AcDbEntity
  8
POST_HOLES
100
AcDbCircle
 10
147.5
 20
5.000000000000006
 30
0.0
 40
1.0
  0
LINE
  5
2D9
330
1F
100
AcDbEntity
  8
SD_CARD
100
AcDbLine
 10
146.5
 20
27.9999999999999
 30
0.0
 11
146.5
 21
41.0
 31
0.0
  0
LINE
  5
2DE
330
1F
100
AcDbEntity
  8
SD_CARD
100
AcDbLine
 10
153.4999999999999
 20
27.9999999999999
 30
0.0
 11
153.5
 21
40.99999999999999
 31
0.0
  0
LINE
  5
31F
330
1F
100
AcDbEntity
  8
FEET
100
AcDbLine
 10
19.55697503500061
 20
-10.60000000000004
 30
0.0
 11
35.94302496499941
 21
-10.60000000000009
 31
0.0
  0
LINE
  5
323
330
1F
100
AcDbEntity
  8
FEET
100
AcDbLine
 10
16.36050433895838
 20
-9.444811450428183
 30
0.0
 11
5.0
 21
0.0
 31
0.0
  0
LINE
  5
324
330
1F
100
AcDbEntity
  8
FEET
100
AcDbLine
 10
39.13949566104167
 20
-9.444811450428222
 30
0.0
 11
50.5
 21
0.0
 31
0.0
  0
CIRCLE
  5
325
330
1F
100
AcDbEntity
  8
FEET
100
AcDbCircle
 10
27.75
 20
-5.600000000000072
 30
0.0
 40
1.5
  0
ARC
  5
326
330
1F
100
AcDbEntity
  8
FEET
100
AcDbCircle
 10
19.55697503500062
 20
-5.600000000000044
 30
0.0
 40
5.0
100
AcDbArc
 50
230.2607946458304
 51
269.9999999999998
  0
ARC
  5
327
330
1F
100
AcDbEntity
  8
FEET
100
AcDbCircle
 10
35.94302496499941
 20
-5.600000000000096
 30
0.0
 40
5.0
100
AcDbArc
 50
269.9999999999998
 51
309.7392053541698
  0
ARC
  5
328
330
1F
100
AcDbEntity
  8
FEET
100
AcDbCircle
 10
35.94302496499941
 20
76.60000000000007
 30
0.0
 40
5.0
100
AcDbArc
 50
50.2607946458302
 51
90.00000000000021
  0
ARC
  5
329
330
1F
100
AcDbEntity
  8
FEET
100
AcDbCircle
 10
19.55697503500061
 20
76.60000000000002
 30
0.0
 40
5.0
100
AcDbArc
 50
90.00000000000021
 51
129.7392053541696
  0
CIRCLE
  5
32A
330
1F
100
AcDbEntity
  8
FEET
100
AcDbCircle
 10
27.75
 20
76.60000000000005
 30
0.0
 40
1.5
  0
LINE
  5
32B
330
1F
100
AcDbEntity
  8
FEET
100
AcDbLine
 10
39.13949566104161
 20
80.44481145042821
 30
0.0
 11
50.49999999999998
 21
71.0
 31
0.0
  0
LINE
  5
32C
330
1F
100
AcDbEntity
  8
FEET
100
AcDbLine
 10
16.36050433895838
 20
80.44481145042814
 30
0.0
 11
5.0
 21
70.99999999999997
 31
0.0
  0
LINE
  5
32D
330
1F
100
AcDbEntity
  8
FEET
100
AcDbLine
 10
19.55697503500058
 20
81.60000000000001
 30
0.0
 11
35.94302496499938
 21
81.60000000000007
 31
0.0
  0
CIRCLE
  5
34C
330
1F
100
AcDbEntity
  8
STANDOFF
100
AcDbCircle
 10
88.49999999999999
 20
21.09999999999995
 30
0.0
 40
1.5
  0
CIRCLE
  5
34D
330
1F
100
AcDbEntity
  8
STANDOFF
100
AcDbCircle
 10
88.49999999999999
 20
44.09999999999995
 30
0.0
 40
1.5
  0
CIRCLE
  5
34E
330
1F
100
AcDbEntity
  8
STANDOFF
100
AcDbCircle
 10
146.4999999999999
 20
44.09999999999995
 30
0.0
 40
1.5
  0
CIRCLE
  5
34F
330
1F
100
AcDbEntity
  8
STANDOFF
100
AcDbCircle
 10
146.4999999999999
 20
21.09999999999995
 30
0.0
 40
1.5
  0
LWPOLYLINE
  5
36F
330
1F
100
AcDbEntity
  8
LOGO
100
AcDbPolyline
 90
       40
 70
     1
 43
0.0
 10
109.085812430367
 20
34.21369334953738
 10
108.9174944289938
 20
33.21485123066282
 10
108.8050882896688
 20
32.7687211647397
 10
108.6769569391424
 20
32.36510741058225
 10
108.5342652078746
 20
32.00983412048686
 10
108.3805075872432
 20
31.70697820106147
 10
108.2168489077076
 20
31.46294621983202
 10
108.0456188301861
 20
31.28297991386552
 10
107.8697294308276
 20
31.17232102022939
 10
107.2174243736032
 20
31.26608987220544
 10
106.8411841352399
 20
31.52060532756883
 10
106.4550428379724
 20
31.88519726133876
 10
106.0770553539201
 20
32.33773389478802
 10
105.7241117247434
 20
32.85841311010802
 10
105.4148492377915
 20
33.42510312857161
 10
105.1667403499544
 20
34.0168370019108
 10
104.9978399333516
 20
34.61206536662792
 10
104.8976645138495
 20
35.49384202434004
 10
104.9098952336724
 20
35.93880725980361
 10
104.9640598500311
 20
36.3837724952673
 10
105.0584111172368
 20
36.82757290027172
 10
105.1935314505191
 20
37.2684612291277
 10
105.3682560194184
 20
37.70469023614646
 10
105.5825848239348
 20
38.13567750609829
 10
105.8353530336094
 20
38.55851096283448
 10
106.2214943308769
 20
39.08967365228864
 10
106.4142737718959
 20
39.31157385479088
 10
106.6041411367664
 20
39.50377088058014
 10
106.7905140102592
 20
39.66335265350819
 10
106.9716451466849
 20
39.790319173575
 10
107.1452048851249
 20
39.88234077986204
 10
107.3100283951199
 20
39.9382526419098
 10
107.4643684309811
 20
39.95747234448885
 10
108.1120141663679
 20
39.52124333746997
 10
108.4014745355113
 20
39.02560797702557
 10
108.6554075756448
 20
38.38728088531338
 10
108.8656594735538
 20
37.6406245608834
 10
109.0229115855632
 20
36.81708942613773
 10
109.1178452679984
 20
35.94929073393746
 10
109.1423067076443
 20
35.07100856760349
  0
LWPOLYLINE
  5
370
330
1F
100
AcDbEntity
  8
LOGO
100
AcDbPolyline
 90
       56
 70
     1
 43
0.0
 10
116.5197604218046
 20
45.06641873910581
 10
116.0602348055993
 20
44.08912598372881
 10
115.748642657729
 20
43.61678723247075
 10
115.3904572914852
 20
43.16366818379191
 10
114.991502859165
 20
42.73559298998833
 10
114.557603513065
 20
42.33955063381666
 10
114.0951658207114
 20
41.98136526757287
 10
113.6094315191712
 20
41.66744345878379
 10
113.1068071759706
 20
41.40360935974576
 10
112.5756444865167
 20
41.18170915724357
 10
112.3252059377609
 20
41.09551170325301
 10
112.0800091260722
 20
41.02445704523415
 10
111.8365595600725
 20
40.96854518318645
 10
111.5913627483836
 20
40.92544645619113
 10
111.3403417843982
 20
40.89574327947826
 10
111.0811670071977
 20
40.87710599212909
 10
110.8091790949441
 20
40.86953459414337
 10
110.3519831396576
 20
40.88234772919605
 10
110.1731816641505
 20
40.90040260131553
 10
110.0188416282894
 20
40.92952336279873
 10
109.8837212950075
 20
40.97087484410491
 10
109.7608316815481
 20
41.02620429092311
 10
109.6437662203856
 20
41.09725894894228
 10
109.526700759223
 20
41.18636847908084
 10
109.4038111457638
 20
41.29528012702803
 10
109.1877350955581
 20
41.62842163839616
 10
109.1120211157018
 20
41.85265150181703
 10
109.0584389145728
 20
42.10658454195072
 10
109.0281533226302
 20
42.3838141912712
 10
109.0217467551038
 20
42.67793388225164
 10
109.0398016272235
 20
42.98311946259582
 10
109.0834827694482
 20
43.29238194954785
 10
109.1533725970081
 20
43.59989719081045
 10
109.7346229962132
 20
44.91266111847437
 10
110.1580388681794
 20
45.49624117859821
 10
110.6577511352315
 20
46.02099730052595
 10
111.2250235689247
 20
46.47994050150152
 10
111.852867186503
 20
46.86666421399872
 10
112.5307985138325
 20
47.17359704003189
 10
113.2512461529275
 20
47.39316758161544
 10
114.005473875343
 20
47.51955168645269
 10
114.623416434017
 20
47.5422658804095
 10
114.920448201146
 20
47.52537583874942
 10
115.2035020027629
 20
47.48984850973982
 10
115.4690833474901
 20
47.43684872384029
 10
115.7131153287194
 20
47.36695889628054
 10
115.9315210398437
 20
47.28192627274944
 10
116.1208059894845
 20
47.18116843801754
 10
116.2763108558051
 20
47.06643263777374
 10
116.4888924146324
 20
46.7618294726592
 10
116.5646063944889
 20
46.55973138796556
 10
116.618188595618
 20
46.33375427885579
 10
116.6484741875606
 20
46.08972229762634
 10
116.6548807550868
 20
45.8340420118036
 10
116.6356610525078
 20
45.57428481937324
 10
116.5913974950536
 20
45.31627487263188
  0
LWPOLYLINE
  5
371
330
1F
100
AcDbEntity
  8
LOGO
100
AcDbPolyline
 90
       88
 70
     1
 43
0.0
 10
117.1144063712921
 20
24.49609524258511
 10
116.7701989705603
 20
24.16237131598717
 10
116.5284966502496
 20
24.02142683040859
 10
116.2442780181732
 20
23.89853721694948
 10
115.9222023961688
 20
23.79544972129872
 10
115.5645994451549
 20
23.71332917391601
 10
115.175546071739
 20
23.65334040526062
 10
114.7579543520696
 20
23.61664824579179
 10
114.316483607984
 20
23.60383511073917
 10
113.3531688181189
 20
23.66673595554283
 10
112.9198518872485
 20
23.74885650292561
 10
112.509249150335
 20
23.86883404023643
 10
112.1161188703114
 20
24.02841581316466
 10
111.7328896491921
 20
24.23167872831749
 10
111.3537373346805
 20
24.4803700313841
 10
110.9710905287909
 20
24.7768193832834
 10
110.5797074944564
 20
25.12452127539319
 10
110.1469729788158
 20
25.56948651085679
 10
109.9547759530263
 20
25.80187018749285
 10
109.7771393079787
 20
26.04182526211474
 10
109.615227874132
 20
26.28876931949247
 10
109.4678768210268
 20
26.54386719008551
 10
109.3350861486633
 20
26.80770128912354
 10
109.2168558570415
 20
27.07968920137677
 10
109.1131859461612
 20
27.36099575730481
 10
109.0264060769412
 20
27.63007159340987
 10
108.9949556545391
 20
27.7512139611801
 10
108.9699117996638
 20
27.869444252802
 10
108.951856927544
 20
27.99116903580182
 10
108.9384613772617
 20
28.11988280155777
 10
108.9297251488169
 20
28.26199211759581
 10
108.9250658269796
 20
28.42157389052386
 10
108.9239009965202
 20
28.60445227263852
 10
108.9239009965202
 20
28.96613213026024
 10
108.9297251488169
 20
29.10067004831285
 10
108.9402086229509
 20
29.21482343332696
 10
108.9582634950704
 20
29.31441643759967
 10
108.983307349946
 20
29.40818528957567
 10
109.0182522637259
 20
29.5019541415515
 10
109.0630982364099
 20
29.60329439151315
 10
109.1195925136875
 20
29.71977743744611
 10
109.2220975941084
 20
29.90440306524971
 10
109.2710204734001
 20
29.97953462987641
 10
109.3199433526921
 20
30.04534755082847
 10
109.3711958929025
 20
30.10358907379498
 10
109.4259429244911
 20
30.15542402923518
 10
109.4859316931465
 20
30.20376449329729
 10
109.5523270293282
 20
30.24919288121111
 10
109.6268761787251
 20
30.29403885389525
 10
109.7940293496391
 20
30.37790664696689
 10
109.8749850665624
 20
30.40702740845018
 10
109.9640945967011
 20
30.4285767719478
 10
110.0677645075813
 20
30.44371956791912
 10
110.1935661971889
 20
30.45362062682329
 10
110.3490710635093
 20
30.45944477911997
 10
110.540685674069
 20
30.4623568552683
 10
110.7753990116237
 20
30.462939270498
 10
111.3886822484605
 20
30.43731300039275
 10
111.6641646520917
 20
30.40586257799083
 10
111.9303284120483
 20
30.35868694438818
 10
112.1947449263161
 20
30.29403885389525
 10
112.4661504233399
 20
30.2090062303642
 10
112.7526987163346
 20
30.10242424333564
 10
113.0625436185163
 20
29.97138081666111
 10
113.4044213583291
 20
29.81412870465164
 10
113.94140820008
 20
29.5392287162502
 10
114.1819456899314
 20
29.39886664590091
 10
114.4096700447301
 20
29.25209800802548
 10
114.6309878320026
 20
29.09484589601607
 10
114.8499759583565
 20
28.92303340326498
 10
115.0718761608586
 20
28.733748453624
 10
115.3025125918059
 20
28.52291414048551
 10
115.5465445730354
 20
28.28703597247141
 10
116.099256625987
 20
27.70287349711782
 10
116.3362996244603
 20
27.42389660210864
 10
116.5465515223694
 20
27.15249110508501
 10
116.732924395862
 20
26.88690976035798
 10
116.894253414479
 20
26.62715256792768
 10
117.032868239139
 20
26.37147228210483
 10
117.1487688698423
 20
26.11870407243049
 10
117.2425377218183
 20
25.86768310844502
 10
117.3042737361627
 20
25.56424477378982
 10
117.3141747950672
 20
25.39767401810582
 10
117.3112627189187
 20
25.22819118627331
 10
117.2955375077177
 20
25.06045560013007
 10
117.267581576694
 20
24.89796175105363
 10
117.2279773410769
 20
24.74711620657052
 10
117.1761423856365
 20
24.61141345805868
  0
LWPOLYLINE
  5
372
330
1F
100
AcDbEntity
  8
LOGO
100
AcDbPolyline
 90
       80
 70
     1
 43
0.0
 10
118.7766194367545
 20
34.21369334953738
 10
118.6228618161233
 20
33.75009082672443
 10
118.5168622443243
 20
33.50372918457646
 10
118.3963022917836
 20
33.25620271196886
 10
118.2640940346499
 20
33.01333556119891
 10
118.1237319643007
 20
32.78095188456274
 10
117.9787105721141
 20
32.56487583435723
 10
117.8325243494686
 20
32.37151397810868
 10
117.6886677877414
 20
32.20669046811361
 10
117.1382853957085
 20
31.70697820106147
 10
116.8552315940914
 20
31.50720977728651
 10
116.5640239792593
 20
31.33830936068381
 10
116.2623328902927
 20
31.19969453602369
 10
115.9472462510442
 20
31.09020047284668
 10
115.6164344005951
 20
31.0080799254639
 10
115.2669852627964
 20
30.95275047864584
 10
114.8977340071891
 20
30.92246488670327
 10
114.1033196339267
 20
30.94168458928215
 10
113.7457166829126
 20
30.99817886655961
 10
113.4079158497073
 20
31.08903564238739
 10
113.0858402277028
 20
31.21600216245417
 10
112.7742480798323
 20
31.38024325721961
 10
112.4684800842584
 20
31.58467100283184
 10
112.1644593343736
 20
31.82986781452053
 10
111.8569440931106
 20
32.11874576843417
 10
111.4946818202592
 20
32.50430465047214
 10
111.3455835214652
 20
32.68893027827562
 10
111.2127928491017
 20
32.87472073653873
 10
111.0945625574798
 20
33.06575293186876
 10
110.9873981552215
 20
33.26668618610296
 10
110.8878051509488
 20
33.48276223630847
 10
110.7934538837431
 20
33.71805798909287
 10
110.7008498622268
 20
33.97723276629364
 10
110.6233886366813
 20
34.2305833911978
 10
110.5960151208871
 20
34.35056092850852
 10
110.5750481726192
 20
34.47578020288649
 10
110.5599053766477
 20
34.61439502754672
 10
110.5494219025139
 20
34.775141630934
 10
110.5430153349875
 20
34.96442658057498
 10
110.5401032588393
 20
35.19156852014402
 10
110.5389384283799
 20
35.46355643239741
 10
110.5453449959061
 20
35.9877301390955
 10
110.5529163938918
 20
36.17934474965506
 10
110.5645646984852
 20
36.33892652258308
 10
110.5826195706049
 20
36.47637651678406
 10
110.6082458407098
 20
36.60392545208052
 10
110.6437731697195
 20
36.73147438737704
 10
110.689783972863
 20
36.8706716272668
 10
110.7486079110591
 20
37.03141823065426
 10
110.939640106389
 20
37.48977901640012
 10
111.04214518681
 20
37.69770125339039
 10
111.1510568347574
 20
37.89397518578744
 10
111.2669574654605
 20
38.08034805928003
 10
111.3915943246086
 20
38.25914953478701
 10
111.5261322426612
 20
38.43212685799742
 10
111.6717360500772
 20
38.60102727460003
 10
111.8295705773165
 20
38.76818044551391
 10
112.3659750038375
 20
39.23527745970466
 10
112.6367980856314
 20
39.41990308750826
 10
112.9140277349517
 20
39.57366070813981
 10
113.2011584431763
 20
39.69887998251767
 10
113.5022671169129
 20
39.79672574110145
 10
113.8214306627691
 20
39.86894522957971
 10
114.1609787416633
 20
39.91786810887152
 10
114.5261530906631
 20
39.94407679420652
 10
115.3095015745619
 20
39.91612086318259
 10
115.6705990169538
 20
39.8567145097569
 10
116.0136415872261
 20
39.76585773392912
 10
116.3409589462978
 20
39.6423857052402
 10
116.6542983398573
 20
39.48571600846049
 10
116.9559894288235
 20
39.29526622836016
 10
117.248361874115
 20
39.06987153448006
 10
117.5331629214211
 20
38.80894951159035
 10
118.21167666398
 20
37.95105187829461
 10
118.4696866107215
 20
37.46881206813225
 10
118.6712022801854
 20
36.95919874217594
 10
118.8150588419126
 20
36.42861846795154
 10
118.8989266349843
 20
35.88231298252623
 10
118.9216408289411
 20
35.32727126865604
 10
118.8814541780941
 20
34.76873506340775
  0
LWPOLYLINE
  5
373
330
1F
100
AcDbEntity
  8
LOGO
100
AcDbPolyline
 90
       48
 70
     1
 43
0.0
 10
124.4936073311414
 20
46.97208137056816
 10
124.1394988715054
 20
46.76474154880736
 10
123.8948844750461
 20
46.68553307757315
 10
123.6083361820514
 20
46.62321464799896
 10
123.2833484838986
 20
46.57836867531495
 10
122.9234158719661
 20
46.55099515952059
 10
122.530868007172
 20
46.54167651584589
 10
122.1097817961245
 20
46.55157757475024
 10
121.6619044845125
 20
46.58011592100371
 10
120.0427901460452
 20
46.79793921689838
 10
119.315935939424
 20
46.95752098982637
 10
118.6636308821997
 20
47.14447627854869
 10
118.0986881094252
 20
47.35298093076852
 10
117.635668001842
 20
47.5783756246488
 10
117.2873836945025
 20
47.8154186231223
 10
117.0683955681486
 20
48.05886818912205
 10
116.9926815882923
 20
48.30348258558138
 10
117.1481864546127
 20
48.65293172337977
 10
117.3281527605791
 20
48.84454633393938
 10
117.5646133438227
 20
49.03849060541762
 10
117.8465023149804
 20
49.2283579702883
 10
118.1656658608366
 20
49.4083242762546
 10
118.5122029224869
 20
49.57198295579042
 10
118.8767948562569
 20
49.71234502613959
 10
119.2495406032423
 20
49.82358633500552
 10
119.7748791403996
 20
49.91852001744075
 10
120.0614274333946
 20
49.94531111800529
 10
120.3561295396047
 20
49.9587066682877
 10
120.6531613067338
 20
49.9587066682877
 10
120.9472809977142
 20
49.94531111800529
 10
121.2314996297905
 20
49.91852001744075
 10
121.5011578811254
 20
49.87775095136431
 10
121.749849184192
 20
49.82358633500552
 10
122.5
 20
49.55451049890047
 10
122.8640095185401
 20
49.36872004063741
 10
123.2140410715685
 20
49.15439123612086
 10
123.5436880915586
 20
48.91618340718827
 10
123.8477088414434
 20
48.6570086299875
 10
124.1202791689265
 20
48.38152622635624
 10
124.3555749217108
 20
48.09323068767224
 10
124.5477719475002
 20
47.79619892054339
 10
124.6718263914188
 20
47.55449660023262
 10
124.7050240595096
 20
47.45665084164886
 10
124.7184196097921
 20
47.36928855719924
 10
124.7131778727249
 20
47.28891525550546
 10
124.6875516026198
 20
47.21261886041941
 10
124.6427056299356
 20
47.13690488056307
 10
124.5780575394429
 20
47.05769640932863
  0
LWPOLYLINE
  5
374
330
1F
100
AcDbEntity
  8
LOGO
100
AcDbPolyline
 90
       56
 70
     1
 43
0.0
 10
124.6491121974617
 20
23.63761519405966
 10
124.299663059663
 20
23.16702368849082
 10
124.117367092778
 20
22.95793662104114
 10
123.9286645583669
 20
22.76573959525183
 10
123.7318082107405
 20
22.5875205349746
 10
123.5244683889797
 20
22.42269702497953
 10
123.3066450930852
 20
22.27010423480732
 10
123.076008662138
 20
22.12799491876922
 10
122.8313942656789
 20
21.99578666163541
 10
122.0200898507564
 20
21.67778794623854
 10
121.5949267331011
 20
21.5752828658176
 10
121.1598625565418
 20
21.51063477532483
 10
120.7183918124561
 20
21.48326125953059
 10
120.2716793313033
 20
21.49432714889428
 10
119.8232196044618
 20
21.54383244341563
 10
119.3759247080793
 20
21.63235955832482
 10
118.9321243030751
 20
21.75932607839161
 10
118.3467969972621
 20
22.00976462714743
 10
118.0619959499562
 20
22.16701673915679
 10
117.79524977477
 20
22.33708198621872
 10
117.5558771153779
 20
22.51238897034779
 10
117.3531966154544
 20
22.68653112401756
 10
117.1965269186748
 20
22.85251946447187
 10
117.0957690839426
 20
23.00278259372533
 10
117.0602417549333
 20
23.13091394425157
 10
117.1767248008663
 20
23.4029018565048
 10
117.3147572102968
 20
23.54908807915069
 10
117.4999652533301
 20
23.69760396271499
 10
117.7265247776696
 20
23.84553743104982
 10
117.9903588767076
 20
23.98997640800656
 10
118.2856433981473
 20
24.12684398697781
 10
118.6077190201517
 20
24.25381050704476
 10
118.9525088361131
 20
24.36738147682934
 10
119.8063295628016
 20
24.59685307731707
 10
120.2239212824709
 20
24.68538019222604
 10
120.6397657564512
 20
24.75643485024511
 10
121.0585223065802
 20
24.81118188183359
 10
121.4831030090058
 20
24.84962128699152
 10
121.9175847703354
 20
24.87291789617803
 10
122.3660444971769
 20
24.88048929416368
 10
122.8313942656789
 20
24.87408272663748
 10
123.3619745399034
 20
24.85602785451778
 10
123.5605781332188
 20
24.84496196515414
 10
123.7242368127547
 20
24.83098399964223
 10
123.8599395612665
 20
24.81351154275222
 10
123.9758401919698
 20
24.79137976402495
 10
124.07951010285
 20
24.76342383300124
 10
124.1773558614335
 20
24.7278965039917
 10
124.2775312809357
 20
24.68538019222604
 10
124.5984420724811
 20
24.50483147103006
 10
124.7067713051987
 20
24.40582088198715
 10
124.7807380393661
 20
24.30040372541788
 10
124.8209246902128
 20
24.18741517086301
 10
124.8273312577393
 20
24.06569038786307
 10
124.8005401571746
 20
23.93406454595896
 10
124.7411338037489
 20
23.79137281469116
  0
LWPOLYLINE
  5
375
330
1F
100
AcDbEntity
  8
LOGO
100
AcDbPolyline
 90
       64
 70
     1
 43
0.0
 10
127.108651712335
 20
38.86253171271948
 10
126.8518065960531
 20
38.295841694256
 10
126.6957193145029
 20
38.03957899320356
 10
126.5209947456037
 20
37.80195357950054
 10
126.3270504741254
 20
37.58180062268728
 10
126.1138865000681
 20
37.37912012276398
 10
125.8820852386617
 20
37.19391207973079
 10
125.629899444217
 20
37.02617649358723
 10
125.3584939471933
 20
36.87591336433397
 10
124.9572098539546
 20
36.69885913451577
 10
124.7562765997202
 20
36.62896930695615
 10
124.5524312693375
 20
36.57072778398964
 10
124.343344201888
 20
36.52355215038677
 10
124.1272681516823
 20
36.48802482137717
 10
123.9012910425726
 20
36.46298096650173
 10
123.6636656288693
 20
36.44842058576009
 10
123.4120622496543
 20
36.44376126392283
 10
122.5
 20
36.5200576590089
 10
122.0602765016031
 20
36.61499134144424
 10
121.6327837230293
 20
36.74778201380761
 10
121.2181040795083
 20
36.91726484563995
 10
120.8179848167289
 20
37.12343983694132
 10
120.4324259346908
 20
37.36572457248167
 10
120.0625922638538
 20
37.64353663703162
 10
119.7090662194475
 20
37.95745844582086
 10
119.0870467541659
 20
38.64820290820288
 10
118.8336961292618
 20
39.01046518105415
 10
118.6187849095156
 20
39.38321092803949
 10
118.4423130949273
 20
39.76527531869954
 10
118.3048631007265
 20
40.156658353034
 10
118.206434926913
 20
40.55619520058383
 10
118.1476109887171
 20
40.96330344611942
 10
118.1278088709083
 20
41.37681825918122
 10
118.1744020892816
 20
42.0599913235776
 10
118.2332260274777
 20
42.36983622575912
 10
118.3182586510085
 20
42.66279108628032
 10
118.4289175446449
 20
42.94060315083027
 10
118.5675323693051
 20
43.20560208032765
 10
118.7335207097595
 20
43.46069995092077
 10
118.9292122269267
 20
43.70880883875781
 10
119.1551893360366
 20
43.95109357429833
 10
119.9746475641747
 20
44.56845371774266
 10
120.4399973326766
 20
44.78744184409646
 10
120.9362151083507
 20
44.94527637133546
 10
121.4574767389002
 20
45.04137488423021
 10
121.9985404872587
 20
45.07515496755075
 10
122.5547470315883
 20
45.04486937560815
 10
123.1196898043628
 20
44.9499356931729
 10
123.6892918989749
 20
44.78918908978548
 10
124.8343202404952
 20
44.24055394344148
 10
125.3503401339778
 20
43.87246751829349
 10
125.8209316395468
 20
43.45196372247584
 10
126.239105774446
 20
42.98544912351447
 10
126.5984559711488
 20
42.47991270416576
 10
126.8937404925889
 20
41.94292586241497
 10
127.11738794078
 20
41.38147758101847
 10
127.2641565786555
 20
40.80197442750225
 10
127.3072553056508
 20
40.39253652104803
 10
127.3107497970287
 20
40.16597699670852
 10
127.3031783990429
 20
39.93242848961312
 10
127.2845411116938
 20
39.69771515205837
 10
127.2554203502107
 20
39.467661136341
 10
127.216398529823
 20
39.24809059475733
 10
127.1674756505311
 20
39.04424526437474
  0
LWPOLYLINE
  5
376
330
1F
100
AcDbEntity
  8
LOGO
100
AcDbPolyline
 90
       48
 70
     1
 43
0.0
 10
127.4330569952581
 20
30.03719373761327
 10
126.9473226937181
 20
28.78150650245652
 10
126.5838955904071
 20
28.2142340687634
 10
126.1494138290776
 20
27.69588451436192
 10
125.6508663924848
 20
27.23344682200832
 10
125.0952422633849
 20
26.83274514399915
 10
124.4889480093041
 20
26.49960363263102
 10
123.8401374434579
 20
26.24159368588966
 10
123.1557995486021
 20
26.06395704084213
 10
121.7189811770195
 20
26.00280344172722
 10
121.0538629847428
 20
26.13035237702372
 10
120.4370852565281
 20
26.35632948613363
 10
119.8791314665096
 20
26.67491061676003
 10
119.3893202583617
 20
27.08027161660664
 10
118.9781351062186
 20
27.56658833337628
 10
118.6554770689845
 20
28.12861903000277
 10
118.4318296207932
 20
28.75995713895901
 10
118.3572804713961
 20
29.23054864452797
 10
118.3450497515733
 20
29.49030583695827
 10
118.349126658181
 20
29.75996408829286
 10
118.3683463607597
 20
30.03486407669459
 10
118.4038736897695
 20
30.3091816498665
 10
118.4545438147502
 20
30.57883990120109
 10
118.5203567357021
 20
30.83917950886127
 10
118.6007300373959
 20
31.08437632055001
 10
119.1534420903474
 20
32.16825106295568
 10
119.5186164393471
 20
32.6545677797256
 10
119.935625743787
 20
33.09778576950021
 10
120.3992282666
 20
33.49382812567217
 10
120.9041822707191
 20
33.83745311117417
 10
121.445828434307
 20
34.12458381939871
 10
122.0177601898376
 20
34.35056092850852
 10
122.6147358002438
 20
34.51072511666627
 10
124.0661145525677
 20
34.59634015542696
 10
124.7422986342081
 20
34.47869227903471
 10
125.3718894974755
 20
34.26203381359943
 10
125.9426564225468
 20
33.95160649618843
 10
126.4452807657471
 20
33.55439930955718
 10
126.8681142224838
 20
33.07507157554339
 10
127.2012557338519
 20
32.52061227690267
 10
127.4330569952581
 20
31.89568073547268
 10
127.4959578400621
 20
31.53400087785103
 10
127.5140127121816
 20
31.32374897994224
 10
127.5233313558562
 20
31.10243119266964
 10
127.5233313558562
 20
30.87587166833025
 10
127.5140127121816
 20
30.64989455922027
 10
127.4959578400621
 20
30.43032401763672
 10
127.4691667394975
 20
30.2241490263355
  0
LWPOLYLINE
  5
377
330
1F
100
AcDbEntity
  8
LOGO
100
AcDbPolyline
 90
       66
 70
     1
 43
0.0
 10
131.4540517408619
 20
28.2124868230743
 10
131.2781623415033
 20
27.64521438938101
 10
131.169250693556
 20
27.38021545988386
 10
131.0446138344079
 20
27.12570000452041
 10
130.9042517640587
 20
26.88050319283155
 10
130.7475820672789
 20
26.6440426095877
 10
130.5734399136092
 20
26.41398859387038
 10
130.3812428878201
 20
26.18917631521981
 10
130.1698261594517
 20
25.96902335840673
 10
129.8925965101314
 20
25.69820027661274
 10
129.7702893119016
 20
25.58870621343573
 10
129.6532238507393
 20
25.49260770054104
 10
129.5379056352657
 20
25.40699266178041
 10
129.4214225893329
 20
25.32894902100543
 10
129.2985329758736
 20
25.25556470206772
 10
129.1663247187395
 20
25.18392762881877
 10
129.0213033265533
 20
25.11112572511092
 10
128.5413931773096
 20
24.895632090135
 10
128.320657805267
 20
24.81292912752252
 10
128.103416924602
 20
24.74536896088159
 10
127.8832639677889
 20
24.69062192929306
 10
127.6543747825306
 20
24.64752320229798
 10
127.4091779708419
 20
24.61374311897731
 10
127.1418493804259
 20
24.58869926410188
 10
126.8454000285266
 20
24.57006197675247
 10
126.0480735791161
 20
24.52987532590561
 10
126.0480735791161
 20
24.75934692639345
 10
126.2565782313359
 20
25.41747613591423
 10
126.5046871191729
 20
25.86477103229674
 10
126.8366638000818
 20
26.37496677348281
 10
127.2449368760766
 20
26.93641505487943
 10
127.7196052882531
 20
27.5374675718931
 10
128.2530976386259
 20
28.16705843516042
 10
128.83609528352
 20
28.81237450962885
 10
129.4604444097203
 20
29.46293232116398
 10
130.0999363318918
 20
30.08902869305335
 10
130.3655176766188
 20
30.33422550474215
 10
130.5990661837144
 20
30.5363235894357
 10
130.8017466836375
 20
30.69707019282321
 10
130.976471252537
 20
30.81937739105267
 10
131.1261519665608
 20
30.90441001458372
 10
131.2531184866277
 20
30.95391530910511
 10
131.3591180584267
 20
30.96964052030607
 10
131.4319199621346
 20
30.96090429186118
 10
131.4592934779289
 20
30.94867357203809
 10
131.4820076718859
 20
30.92887145422962
 10
131.5006449592351
 20
30.90033310797615
 10
131.5157877552065
 20
30.86247611804792
 10
131.528600890259
 20
30.81413565398565
 10
131.539084364393
 20
30.75298205487091
 10
131.5484030080678
 20
30.6790153207035
 10
131.5635458040389
 20
30.57010367275619
 10
131.5722820324838
 20
30.51360939547873
 10
131.5804358456993
 20
30.45769753343096
 10
131.5891720741441
 20
30.40295050184266
 10
131.5973258873594
 20
30.35111554640234
 10
131.6043148701154
 20
30.30393991279964
 10
131.6107214376416
 20
30.26200601626378
 10
131.6159631747086
 20
30.22647868725419
 10
131.6351828772875
 20
29.8979964977234
 10
131.6299411402205
 20
29.67143697338384
 10
131.6159631747086
 20
29.41925117893925
 10
131.5944138112108
 20
29.15483466467163
 10
131.5664578801871
 20
28.88925331994449
 10
131.5332602120964
 20
28.63590269504039
 10
131.4954032221681
 20
28.4058486793229
  0
LWPOLYLINE
  5
378
330
1F
100
AcDbEntity
  8
LOGO
100
AcDbPolyline
 90
       48
 70
     1
 43
0.0
 10
131.6637212235411
 20
40.73441426086121
 10
131.6404246143545
 20
40.6534585439379
 10
131.6252818183834
 20
40.6196784606174
 10
131.6072269462636
 20
40.59055769913401
 10
131.5868424132254
 20
40.56551384425846
 10
131.5641282192686
 20
40.54512931122018
 10
131.539084364393
 20
40.52940410001927
 10
131.5111284333689
 20
40.51833821065558
 10
131.4808428414265
 20
40.51134922789962
 10
130.7178788905661
 20
40.92952336279871
 10
130.1407053979683
 20
41.43214770599938
 10
129.486653095055
 20
42.0745517043192
 10
128.7947438022138
 20
42.81480146122286
 10
128.1039993398318
 20
43.60979824971479
 10
127.4551887739855
 20
44.41760817325949
 10
126.8873339250624
 20
45.19687975055068
 10
126.4400390286802
 20
45.90451425459299
 10
126.2967648821828
 20
46.18640322575053
 10
126.2402706049053
 20
46.32152355903268
 10
126.1960070474508
 20
46.44849007909958
 10
126.1633917945896
 20
46.56497312503243
 10
126.143589676781
 20
46.66747820545346
 10
126.1371831092547
 20
46.75367565944383
 10
126.1459193376995
 20
46.82007099562558
 10
126.1692159468863
 20
46.86375213785042
 10
126.3637426335941
 20
46.91558709329053
 10
126.5349727111154
 20
46.92665298265426
 10
126.7405652871871
 20
46.92781781311349
 10
126.9694544724452
 20
46.92082883035751
 10
127.2094095470668
 20
46.90510361915651
 10
127.4499470369185
 20
46.88064217951061
 10
127.6794186374063
 20
46.84919175710881
 10
127.8861760439371
 20
46.80958752149154
 10
129.0993469673284
 20
46.38384198860698
 10
129.6299272415526
 20
46.07399708642531
 10
130.1075077298775
 20
45.70241616989936
 10
130.5297587713844
 20
45.27201131517744
 10
130.894933120384
 20
44.78394735271841
 10
131.2012835311876
 20
44.24113635867103
 10
131.4464803428763
 20
43.64532557872443
 10
131.6299411402205
 20
42.99826225856712
 10
131.6776991890531
 20
42.5952309196392
 10
131.6940068154837
 20
42.31567160940026
 10
131.7044902896177
 20
42.00873878336714
 10
131.7091496114549
 20
41.6942345593482
 10
131.707402365766
 20
41.39079622469306
 10
131.6992485525508
 20
41.11706106675079
 10
131.684688171809
 20
40.89166637287063
  0
LWPOLYLINE
  5
379
330
1F
100
AcDbEntity
  8
LOGO
100
AcDbPolyline
 90
       40
 70
     1
 43
0.0
 10
132.4406631399135
 20
34.6120653666279
 10
132.0813129432108
 20
33.51421265871027
 10
131.827379903077
 20
33.0133355611989
 10
131.5361722882446
 20
32.55905168206048
 10
131.2170087423883
 20
32.16242691065905
 10
130.8780430787235
 20
31.83452713635784
 10
130.5280115256955
 20
31.58700066375046
 10
130.1768151422076
 20
31.42974855174105
 10
129.8320253262462
 20
31.37500152015251
 10
129.0492592575773
 20
31.64698943240596
 10
128.7102935939124
 20
31.96615297826206
 10
128.4138442420133
 20
32.39189851114684
 10
128.1651529389463
 20
32.91374255692618
 10
127.9694614217792
 20
33.51945439577735
 10
127.832593842808
 20
34.19738572310682
 10
127.7603743543295
 20
34.93763548001037
 10
127.7574622781813
 20
35.72739053143549
 10
127.8454069778607
 20
36.63945278109002
 10
127.9246154490951
 20
37.06112140736717
 10
128.0265381142862
 20
37.45774617876872
 10
128.1511749734345
 20
37.8281622648352
 10
128.2973611960803
 20
38.17120483510784
 10
128.4656791974535
 20
38.48454422866728
 10
128.6555465623241
 20
38.76759803028402
 10
128.8657984602329
 20
39.0180365790399
 10
129.3748293709598
 20
39.44902384899164
 10
129.6252679197152
 20
39.57191346245087
 10
129.8745416380119
 20
39.6324846463359
 10
130.1243977715379
 20
39.63131981587667
 10
130.3771659812123
 20
39.56841897107294
 10
130.6334286822646
 20
39.44261728146522
 10
130.894933120384
 20
39.25507957751323
 10
131.1634265412593
 20
39.00464102875752
 10
131.8029184634311
 20
38.16421585235178
 10
132.0516097664978
 20
37.69478917724204
 10
132.250795775043
 20
37.20148347771628
 10
132.399311658607
 20
36.69070532130046
 10
132.4936629258129
 20
36.17002610598046
 10
132.53384957666
 20
35.64526998405272
 10
132.5163771197701
 20
35.12400835350296
  0
LWPOLYLINE
  5
37A
330
1F
100
AcDbEntity
  8
LOGO
100
AcDbPolyline
 90
      427
 70
     1
 43
0.0
 10
142.6381713961096
 20
28.42914528850952
 10
142.5152817826503
 20
28.48971647239455
 10
142.4477216160091
 20
28.51126583589223
 10
142.3784142036791
 20
28.52582621663385
 10
142.3120188674972
 20
28.53456244507873
 10
142.2497004379231
 20
28.53572727553819
 10
142.194370991105
 20
28.53048553847117
 10
142.1495250184209
 20
28.51708998818902
 10
142.1174921807892
 20
28.49670545515067
 10
142.1163273503299
 20
28.46234295660048
 10
142.1250635787751
 20
28.43089253419862
 10
142.1384591290574
 20
28.39187071381093
 10
142.1570964164063
 20
28.34585991066751
 10
142.1803930255933
 20
28.29402495522737
 10
142.2071841261576
 20
28.23636584749067
 10
142.2386345485595
 20
28.17521224837572
 10
142.2729970471096
 20
28.11114657311265
 10
142.4110294565402
 20
27.82634552580674
 10
142.4809192841001
 20
27.65860993966334
 10
142.5478970355115
 20
27.48388537076397
 10
142.6096330498557
 20
27.31090804755377
 10
142.6620504205256
 20
27.14724936801792
 10
142.7028194866021
 20
27.00106314537226
 10
142.7296105871667
 20
26.88050319283155
 10
142.7395116460711
 20
26.79372332361152
 10
142.7290281719372
 20
26.75936082506126
 10
142.7162150368844
 20
26.75411908799447
 10
142.6975777495352
 20
26.7570311641428
 10
142.6731163098892
 20
26.76809705350638
 10
142.6434131331764
 20
26.78789917131502
 10
142.6073033889372
 20
26.8170199327983
 10
142.5647870771716
 20
26.85429450749672
 10
142.5164466131094
 20
26.90147014109954
 10
142.3457989508179
 20
27.04183221144871
 10
142.2706673861909
 20
27.08551335367355
 10
142.2054368804688
 20
27.1111396237788
 10
142.1512722641101
 20
27.11871102176445
 10
142.111085613263
 20
27.10764513240076
 10
142.0860417583872
 20
27.07794195568784
 10
142.0784703604017
 20
27.02960149162561
 10
142.0907010802249
 20
26.96262374021427
 10
142.1675798905405
 20
26.67549303198979
 10
142.2130082784543
 20
26.49902121740132
 10
142.3073595456599
 20
26.12744030087549
 10
142.3510406878847
 20
25.95038607105732
 10
142.3894800930427
 20
25.79138671335903
 10
142.4203481002149
 20
25.65917845622522
 10
142.4418974637125
 20
25.56366235856024
 10
142.4890730973153
 20
25.33360834284275
 10
142.2392169637892
 20
25.55026680827791
 10
142.0045036262344
 20
25.73023311424424
 10
141.9258775702296
 20
25.76401319756474
 10
141.871712953871
 20
25.75760663003837
 10
141.8402625314691
 20
25.71043099643566
 10
141.8315263030241
 20
25.6201566358377
 10
141.8443394380766
 20
25.48561871778515
 10
141.8769546909377
 20
25.30506999658923
 10
141.9282072311483
 20
25.07734564179032
 10
142.0050860414642
 20
24.72148993646533
 10
142.0307123115694
 20
24.56773231583401
 10
142.0481847684589
 20
24.42620541502544
 10
142.0580858273636
 20
24.29399715789163
 10
142.0598330730527
 20
24.16936029874336
 10
142.0545913359855
 20
24.04938276143253
 10
142.0423606161626
 20
23.93173488504016
 10
142.0231409135837
 20
23.81350459341837
 10
141.9753828647512
 20
23.59742854321274
 10
141.7191201636986
 20
23.84728467673875
 10
141.4552860646606
 20
24.104129793021
 10
141.4552860646606
 20
23.17808957785445
 10
141.4535388189719
 20
22.85717878630919
 10
141.4512091580531
 20
22.71273980935246
 10
141.4482970819047
 20
22.58344362836703
 10
141.4453850057566
 20
22.47161990427134
 10
141.4413080991488
 20
22.37959829798427
 10
141.4372311925413
 20
22.31087330088377
 10
141.4325718707039
 20
22.2671921586591
 10
141.4284949640963
 20
22.25263177791749
 10
141.395879711235
 20
22.26544491297017
 10
141.3673413649813
 20
22.28117012417101
 10
141.3318140359718
 20
22.30213707243888
 10
141.2904625546657
 20
22.3271809273146
 10
141.2438693362926
 20
22.35630168879766
 10
141.1931992113118
 20
22.38891694165904
 10
141.139034594953
 20
22.42444427066846
 10
141.0837051481347
 20
22.46171884536705
 10
140.8484093953504
 20
22.59975125479758
 10
140.7127066468385
 20
22.66964108235732
 10
140.5735094069487
 20
22.73720124899836
 10
140.4360594127479
 20
22.79835484811309
 10
140.3079280622216
 20
22.85077221878294
 10
140.194357092437
 20
22.89212370008915
 10
140.1017530709206
 20
22.91833238542392
 10
140.0359401499685
 20
22.92823344432822
 10
140.0114787103226
 20
22.90435441991207
 10
140.0004128209588
 20
22.87698090411783
 10
139.9910941772844
 20
22.83970632941924
 10
139.9835227792985
 20
22.79486035673506
 10
139.9771162117722
 20
22.74302540129503
 10
139.9724568899351
 20
22.68536629355822
 10
139.9695448137867
 20
22.6224654487545
 10
139.9683799833271
 20
22.55665252780227
 10
139.9648854919494
 20
22.41978494883119
 10
139.9596437548825
 20
22.36096101063498
 10
139.9532371873561
 20
22.30970847042448
 10
139.9445009589111
 20
22.26660974342923
 10
139.9345999000067
 20
22.2316648296495
 10
139.9229515954135
 20
22.20603855954437
 10
139.9095560451311
 20
22.19031334834335
 10
139.8944132491599
 20
22.18507161127639
 10
139.8344244805045
 20
22.21885169459699
 10
139.783171940294
 20
22.25903834544374
 10
139.7191062650308
 20
22.31262054657287
 10
139.6445571156338
 20
22.37785105229534
 10
139.5618541530215
 20
22.45298261692216
 10
139.4721622076532
 20
22.53743282522345
 10
139.3772285252178
 20
22.62828960105105
 10
139.2793827666341
 20
22.72555294440497
 10
139.0866033256153
 20
22.91076098743833
 10
138.996911380247
 20
22.99171670436169
 10
138.9142084176346
 20
23.06277136238072
 10
138.8408240986969
 20
23.12334254626592
 10
138.7779232538931
 20
23.17110059509844
 10
138.7272531289122
 20
23.20488067841893
 10
138.6911433846731
 20
23.22351796576817
 10
138.6713412668645
 20
23.2252652114571
 10
138.6480446576778
 20
23.18624339106964
 10
138.6398908444627
 20
23.15188089251956
 10
138.6329018617066
 20
23.10994699598371
 10
138.6288249550989
 20
23.06102411669173
 10
138.6259128789507
 20
23.00627708510325
 10
138.6253304637209
 20
22.94687073167756
 10
138.62707770941
 20
22.88455230210332
 10
138.6305722007879
 20
22.81990421161066
 10
138.6393084292329
 20
22.69235527631412
 10
138.6398908444627
 20
22.63527858380701
 10
138.6387260140032
 20
22.58460845882621
 10
138.6352315226253
 20
22.54034490137172
 10
138.6299897855584
 20
22.50481757236219
 10
138.6230008028022
 20
22.47802647179759
 10
138.6142645743573
 20
22.46113643013723
 10
138.6037811002234
 20
22.45531227784079
 10
138.545539577257
 20
22.49083960685027
 10
138.4919573761277
 20
22.53335591861583
 10
138.425562039946
 20
22.58985019589323
 10
138.3463535687118
 20
22.65915760822321
 10
138.2578264538026
 20
22.739530909917
 10
138.1605631104488
 20
22.82864044005567
 10
138.0568931995683
 20
22.92590378340958
 10
137.9479815516213
 20
23.02957369428992
 10
137.7394768994012
 20
23.22992453329454
 10
137.6433783865067
 20
23.31961647866279
 10
137.5560161020571
 20
23.39998978035664
 10
137.477972461282
 20
23.46871477745685
 10
137.4127419555595
 20
23.52579146996413
 10
137.3609070001194
 20
23.56772536649987
 10
137.3247972558801
 20
23.59451646706452
 10
137.3061599685307
 20
23.60383511073917
 10
137.2927644182488
 20
23.5822857472416
 10
137.2863578507222
 20
23.55607706190676
 10
137.2811161136553
 20
23.5217145633564
 10
137.2758743765883
 20
23.47978066682054
 10
137.2717974699806
 20
23.43085778752874
 10
137.2683029786028
 20
23.37611075594043
 10
137.2665557329137
 20
23.31612198728493
 10
137.2653909024542
 20
23.25263872725134
 10
137.2653909024542
 20
22.90085992853398
 10
137.0563038350048
 20
23.10412284368687
 10
136.9590404916509
 20
23.20488067841893
 10
136.8973044773064
 20
23.27477050597855
 10
136.8291618954356
 20
23.35339656198329
 10
136.7563599917276
 20
23.44017643120338
 10
136.6812284271008
 20
23.53219803749039
 10
136.6043496167852
 20
23.62771413515537
 10
136.5286356369287
 20
23.7243950632797
 10
136.4546689027613
 20
23.81991116094463
 10
136.3154716628717
 20
23.99754780599232
 10
136.2508235723787
 20
24.07500903153766
 10
136.1919996341826
 20
24.14373402863811
 10
136.1395822635128
 20
24.20139313637486
 10
136.0953187060583
 20
24.24740393951834
 10
136.0597913770488
 20
24.2800191923796
 10
136.035329937403
 20
24.29807406449925
 10
136.0219343871206
 20
24.29982131018818
 10
136.0091212520679
 20
24.26196432025989
 10
136.0027146845418
 20
24.22993148262839
 10
135.9968905322451
 20
24.19032724701123
 10
135.9916487951781
 20
24.14431644386792
 10
135.9875718885704
 20
24.09248148842761
 10
135.9846598124221
 20
24.03656962637967
 10
135.9823301515033
 20
23.97716327295404
 10
135.9817477362738
 20
23.91484484338002
 10
135.9747587535176
 20
23.5700550274185
 10
135.7516937205564
 20
23.83388912645671
 10
135.6532655467431
 20
23.96143806175309
 10
135.596188854236
 20
24.04414102436545
 10
135.5356176703508
 20
24.13499780019316
 10
135.4727168255469
 20
24.23284355877672
 10
135.4098159807432
 20
24.33534863919766
 10
135.3474975511693
 20
24.43960096530765
 10
135.2880911977433
 20
24.54327087618811
 10
135.2315969204658
 20
24.64461112614947
 10
135.0324109119207
 20
25.01852170359422
 10
134.9619386691313
 20
25.14432339320177
 10
134.9066092223132
 20
25.23401533857003
 10
134.863510495318
 20
25.2910920310772
 10
134.830312827227
 20
25.32079520779002
 10
134.8035217266626
 20
25.32603694485721
 10
134.7802251174759
 20
25.31147656411548
 10
134.7586757539781
 20
25.28002614171356
 10
134.7371263904806
 20
25.23343292334028
 10
134.7278077468061
 20
25.20081767047918
 10
134.7190715183611
 20
25.16354309578066
 10
134.712082535605
 20
25.12160919924497
 10
134.705675968079
 20
25.07734564179032
 10
134.7015990614711
 20
25.0301700081875
 10
134.6986869853228
 20
24.98299437458456
 10
134.6975221548635
 20
24.93523632575222
 10
134.6940276634855
 20
24.84204988900592
 10
134.6893683416483
 20
24.80419289907769
 10
134.6829617741221
 20
24.77216006144613
 10
134.6748079609066
 20
24.74653379134094
 10
134.6654893172321
 20
24.72847891922129
 10
134.6550058430981
 20
24.71741302985765
 10
134.6433575385048
 20
24.71391853847956
 10
134.6299619882225
 20
24.71916027554676
 10
134.5344458905574
 20
24.83273124533116
 10
134.4750395371317
 20
24.9364011562115
 10
134.4098090314094
 20
25.06511492196734
 10
134.341084034309
 20
25.2159604664505
 10
134.2694469610603
 20
25.38486088305314
 10
134.1966450573521
 20
25.56773926516786
 10
134.1250079841034
 20
25.7616835366461
 10
134.0557005717733
 20
25.9626167908803
 10
133.8664156221323
 20
26.53687820732955
 10
133.7446908391326
 20
26.38137334100913
 10
133.698680035989
 20
26.32080215712409
 10
133.6782955029508
 20
26.28935173472223
 10
133.6608230460608
 20
26.25848372754996
 10
133.6456802500893
 20
26.22878055083714
 10
133.6334495302666
 20
26.20082461981303
 10
133.6241308865918
 20
26.1746159344782
 10
133.6183067342952
 20
26.15131932529152
 10
133.6165594886063
 20
26.13151720748311
 10
133.6124825819985
 20
26.09773712416245
 10
133.6084056753909
 20
26.08259432819114
 10
133.6019991078646
 20
26.06978119313863
 10
133.5950101251086
 20
26.0581328885454
 10
133.5862738966635
 20
26.0493966601004
 10
133.5769552529889
 20
26.04240767734439
 10
133.5664717788551
 20
26.03833077073682
 10
133.5554058894914
 20
26.03658352504766
 10
133.4872633076207
 20
26.13326445317205
 10
133.4482414872332
 20
26.24334093157876
 10
133.4074724211567
 20
26.38545024761669
 10
133.3678681855396
 20
26.55143858807117
 10
133.3300111956112
 20
26.73548180064523
 10
133.295648697061
 20
26.92942607212336
 10
133.2665279355776
 20
27.12686483497964
 10
133.2449785720803
 20
27.32080910645806
 10
133.2111984887597
 20
27.68248896407965
 10
133.1948908623291
 20
27.8088730689168
 10
133.1774184054391
 20
27.90264192089285
 10
133.1576162876306
 20
27.96845484184502
 10
133.1349020936738
 20
28.00864149269188
 10
133.1075285778796
 20
28.02669636481125
 10
133.0743309097886
 20
28.02611394958172
 10
133.0353090894011
 20
28.00980632315117
 10
132.9892982862576
 20
27.97660865506021
 10
132.9636720161523
 20
27.9521472154143
 10
132.9362985003581
 20
27.92477369962006
 10
132.9077601541046
 20
27.8933232772182
 10
132.8798042230805
 20
27.86012560912729
 10
132.8518482920568
 20
27.82518069534746
 10
132.8244747762626
 20
27.78907095110822
 10
132.7988485061572
 20
27.75296120686903
 10
132.6567391901192
 20
27.55726968970169
 10
132.6905192734397
 20
28.46933193935638
 10
132.778463973119
 20
29.41167978095354
 10
132.8582548595831
 20
29.83975497475694
 10
132.962507185693
 20
30.23929182230681
 10
133.0906385362193
 20
30.61029032360305
 10
133.2438137416209
 20
30.95333289387553
 10
133.4214503866685
 20
31.268419533124
 10
133.6247133018217
 20
31.5549678261189
 10
133.8530200718501
 20
31.8147250185492
 10
134.1296673059406
 20
32.05700975408972
 10
134.2927435702466
 20
32.17524004571156
 10
134.4633912325384
 20
32.28589893934786
 10
134.6340388948303
 20
32.38549194362053
 10
134.7982799895954
 20
32.46994215192193
 10
134.9497079493083
 20
32.53459024241458
 10
135.0807513759828
 20
32.57652413895049
 10
135.1844212868631
 20
32.59166693492175
 10
135.3626403471406
 20
32.47110698238122
 10
135.5105738154751
 20
32.33307457295074
 10
135.6870456300635
 20
32.15369068221405
 10
135.8850668081495
 20
31.94110912338646
 10
136.0964835365178
 20
31.70348370968337
 10
136.3143068324122
 20
31.4495506695498
 10
136.5309652978472
 20
31.18629898574129
 10
136.7383051196079
 20
30.92246488670325
 10
137.3411048823107
 20
30.09660009103901
 10
137.6561915215592
 20
29.63357998345578
 10
137.9753550674155
 20
29.14609843622656
 10
138.2951010285013
 20
28.63881477118878
 10
138.611352498209
 20
28.11813555586872
 10
138.9206149851607
 20
27.5904673577927
 10
139.2188115827491
 20
27.06163432925729
 10
139.5024477995956
 20
26.53687820732955
 10
139.6486340222413
 20
26.26896720168389
 10
139.715611773653
 20
26.15015449483229
 10
139.7756005423083
 20
26.04415492303349
 10
139.8286003282078
 20
25.95388056243542
 10
139.8728638856624
 20
25.8804962434977
 10
139.9072263842125
 20
25.82691404236857
 10
139.930522993399
 20
25.79488120473707
 10
139.9415888827628
 20
25.78672739152171
 10
139.8920835882412
 20
25.97775958685162
 10
139.8221937606817
 20
26.17869284108599
 10
139.7307545696243
 20
26.42913138984165
 10
139.6235901673658
 20
26.71276760668832
 10
139.5065247062035
 20
27.01387628042477
 10
139.3859647536629
 20
27.31614978462062
 10
139.267734462041
 20
27.60386290807503
 10
139.1576579836343
 20
27.86129043958664
 10
138.6404732596924
 20
28.96671454548993
 10
138.3504304753192
 20
29.5275804116568
 10
138.0452448949751
 20
30.08553420167532
 10
137.7284110100376
 20
30.63300451756003
 10
137.4040057271144
 20
31.16416720701402
 10
137.0749411223541
 20
31.6720332872814
 10
136.7458765175936
 20
32.15019619083602
 10
136.4208888194408
 20
32.59166693492175
 10
135.9007920193504
 20
33.28066415161486
 10
136.1506481528765
 20
33.63884951785848
 10
136.4296250478859
 20
33.99004590134614
 10
136.5787233466801
 20
34.13215521738447
 10
136.7353930434596
 20
34.25446241561381
 10
136.9013813839141
 20
34.3569674960347
 10
137.0784356137322
 20
34.44083528910657
 10
137.2683029786028
 20
34.50723062528822
 10
137.4721483089851
 20
34.55731833503943
 10
137.6911364353391
 20
34.59168083358962
 10
138.3667381017499
 20
34.56372490256568
 10
138.7453080010319
 20
34.47869227903469
 10
139.1419327724334
 20
34.34997851327897
 10
139.550788263658
 20
34.18049568144646
 10
139.9643030767197
 20
33.97315585968595
 10
140.376653059322
 20
33.73087112414548
 10
140.7814316439391
 20
33.45655355097346
 10
141.1716498478141
 20
33.15253280108867
 10
141.3685061954407
 20
32.97606098650032
 10
141.4360663620817
 20
32.90675357417022
 10
141.4838244109143
 20
32.84967688166306
 10
141.5111979267086
 20
32.80424849374917
 10
141.5193517399238
 20
32.7693035799695
 10
141.5082858505602
 20
32.74542455555324
 10
141.4774178433881
 20
32.73144659004116
 10
141.4284949640963
 20
32.7267872682039
 10
141.3824841609527
 20
32.72212794636663
 10
141.3533633994696
 20
32.7168862092996
 10
141.3213305618381
 20
32.70989722654365
 10
141.2869680632878
 20
32.70116099809876
 10
141.2508583190486
 20
32.691842354424
 10
141.2147485748095
 20
32.68135888029001
 10
141.1792212457999
 20
32.67029299092648
 10
141.14427633202
 20
32.65922710156274
 10
141.059243708489
 20
32.61612837456765
 10
141.0464305734364
 20
32.58642519785472
 10
141.0598261237186
 20
32.54390888608923
 10
141.1035072659434
 20
32.48159045651521
 10
141.1815509067185
 20
32.39364575683577
 10
141.2980339526514
 20
32.27425063475464
 10
141.4576157255795
 20
32.11699852274517
 10
141.6649555473399
 20
31.91606526851096
 10
142.3673483143154
 20
31.24687016962632
 10
142.0633275644305
 20
31.23988118687042
 10
141.8018231263113
 20
31.22357356043988
 10
141.7243619007656
 20
31.19911212079397
 10
141.6818455890004
 20
31.16183754609539
 10
141.6748566062442
 20
31.10942017542554
 10
141.7022301220385
 20
31.04011276309551
 10
141.7639661363831
 20
30.95100323295689
 10
141.8594822340477
 20
30.84034433932065
 10
141.9893608302632
 20
30.70638883649774
 10
142.1291404853826
 20
30.55729053770356
 10
142.1967006520235
 20
30.48157655784722
 10
142.2619311577461
 20
30.40702740845016
 10
142.3219199264015
 20
30.33539033520149
 10
142.3760845427603
 20
30.2689949990198
 10
142.423260176363
 20
30.20784139990495
 10
142.4611171662914
 20
30.15484161400546
 10
142.4890730973153
 20
30.11174288701032
 10
142.6043913127889
 20
29.90207340433108
 10
142.347546196507
 20
29.93585348765163
 10
142.2374697181002
 20
29.94691937701521
 10
142.1902940844976
 20
29.94633696178556
 10
142.1483601879616
 20
29.9428424704077
 10
142.1116680284928
 20
29.93468865719234
 10
142.0784703604017
 20
29.92304035259906
 10
142.0499320141484
 20
29.9067327261684
 10
142.024305744043
 20
29.88634819313006
 10
142.0027563805454
 20
29.86130433825446
 10
141.9654818058468
 20
29.80189798482872
 10
141.9608224840096
 20
29.77102997765644
 10
141.9660642210765
 20
29.73666747910636
 10
141.9817894322774
 20
29.6976456587189
 10
142.0085805328421
 20
29.65047002511602
 10
142.0476023532296
 20
29.59339333260885
 10
142.0994373086696
 20
29.52525075073822
 10
142.1646678143921
 20
29.44254778812569
 10
142.3457989508179
 20
29.19851580689624
 10
142.440732633253
 20
29.05582407562861
 10
142.5333366547698
 20
28.91022026821247
 10
142.6189516935307
 20
28.76752853694467
 10
142.6929184276979
 20
28.63532027981069
 10
142.7517423658938
 20
28.52058447956688
 10
142.7913466015112
 20
28.43147494942815
 10
142.8070718127121
 20
28.37498067215074
 10
142.7965883385783
 20
28.36391478278716
 10
142.7843576187553
 20
28.36333236755746
 10
142.7674675770948
 20
28.3662444437058
 10
142.7470830440566
 20
28.37265101123205
 10
142.72378643487
 20
28.38196965490681
 10
142.6975777495352
 20
28.39420037472974
 10
142.668456988052
 20
28.40992558593058
  0
LWPOLYLINE
  5
37B
330
1F
100
AcDbEntity
  8
LOGO
100
AcDbPolyline
 90
      411
 70
     1
 43
0.0
 10
142.5840067797508
 20
42.11998009223309
 10
142.5205235197173
 20
42.01863984227144
 10
142.4803368688702
 20
41.95806865838624
 10
142.436073311416
 20
41.89400298312328
 10
142.3883152625833
 20
41.82702523171172
 10
142.3382275528322
 20
41.75888264984097
 10
142.2869750126217
 20
41.69190489842968
 10
142.2357224724112
 20
41.62667439270733
 10
142.1850523474306
 20
41.56610320882212
 10
142.095360402062
 20
41.45136740857815
 10
142.0557561664449
 20
41.39720279221932
 10
142.0196464222055
 20
41.34711508246827
 10
141.9887784150335
 20
41.30110427932469
 10
141.9631521449281
 20
41.26150004370766
 10
141.9445148575787
 20
41.22830237561673
 10
141.9322841377562
 20
41.20325852074107
 10
141.9282072311483
 20
41.18753330954023
 10
141.9718883733732
 20
41.11473140583204
 10
142.020811252665
 20
41.08269856820053
 10
142.0819648517798
 20
41.055907467636
 10
142.1512722641101
 20
41.03494051936796
 10
142.2258214135069
 20
41.02154496908581
 10
142.300370562904
 20
41.01688564724848
 10
142.371425220923
 20
41.02212738431545
 10
142.4349084809565
 20
41.03901742597575
 10
142.4948972496117
 20
41.05823712855475
 10
142.5211059349468
 20
41.06522611131059
 10
142.5444025441334
 20
41.07046784837758
 10
142.5647870771716
 20
41.07396233975565
 10
142.5810947036023
 20
41.07512717021488
 10
142.5939078386551
 20
41.07454475498518
 10
142.6014792366405
 20
41.07105026360726
 10
142.6043913127889
 20
41.06580852654029
 10
142.5473146202818
 20
40.94466615877
 10
142.4838313602483
 20
40.84973247633477
 10
142.402875643325
 20
40.74023841315794
 10
142.3096892065787
 20
40.62142570630617
 10
142.2089313718466
 20
40.5002833385361
 10
142.1046790457365
 20
40.38205304691421
 10
142.0033387957751
 20
40.2737238141966
 10
141.9078226981099
 20
40.18053737745025
 10
141.7598892297752
 20
40.03901047664173
 10
141.7115487657131
 20
39.98775793643115
 10
141.6789335128519
 20
39.94524162466574
 10
141.6608786407325
 20
39.91029671088585
 10
141.6562193188952
 20
39.88001111894339
 10
141.6637907168806
 20
39.85263760314915
 10
141.6830104194597
 20
39.82526408735491
 10
141.712131180943
 20
39.79556091064198
 10
141.76920787345
 20
39.75945116640286
 10
141.8047352024593
 20
39.74256112474244
 10
141.8443394380766
 20
39.72683591354157
 10
141.8862733346126
 20
39.71227553279998
 10
141.9305368920672
 20
39.69946239774735
 10
141.9753828647512
 20
39.68839650838378
 10
142.0196464222055
 20
39.67966027993874
 10
142.0633275644305
 20
39.67383612764205
 10
142.2997881476742
 20
39.65345159460388
 10
141.9957673977896
 20
39.34943084471898
 10
141.8664712168039
 20
39.22188190942243
 10
141.7925044826366
 20
39.15024483617371
 10
141.7144608418614
 20
39.0756956867766
 10
141.6335051249379
 20
38.99939929169055
 10
141.5531318232445
 20
38.92426772706391
 10
141.47392335201
 20
38.85146582335572
 10
141.3976269569242
 20
38.78332324148509
 10
141.3271547141345
 20
38.72100481191102
 10
140.961980365135
 20
38.39659952898795
 10
141.2456165819816
 20
38.28827029627023
 10
141.5298352140577
 20
38.17994106355273
 10
141.3067701810963
 20
37.95046946306472
 10
140.8478269801205
 20
37.5590864287302
 10
140.5653555937334
 20
37.36106525064433
 10
140.2590051829299
 20
37.16886822485508
 10
139.9375119761551
 20
36.9871546731997
 10
139.6107770323133
 20
36.82116633274528
 10
139.2869541646199
 20
36.67614494055885
 10
138.9753620167495
 20
36.55791464893694
 10
138.6847368171468
 20
36.47055236448732
 10
137.9479815516213
 20
36.38260766480794
 10
137.597949998593
 20
36.41172842629122
 10
137.2653909024542
 20
36.48802482137715
 10
136.9543811698136
 20
36.6097496043772
 10
136.6701625377374
 20
36.77515552960198
 10
136.4156470823738
 20
36.98249535136249
 10
136.1960765407904
 20
37.23060423919951
 10
136.0155278195944
 20
37.51773494742422
 10
135.9654401098433
 20
37.63072350197909
 10
135.9567038813982
 20
37.6778991355818
 10
135.9613632032355
 20
37.72565718441432
 10
135.9805829058145
 20
37.77865697031392
 10
136.017857480513
 20
37.84214023034728
 10
136.0743517577904
 20
37.92134870158172
 10
136.1512305681062
 20
38.02094170585424
 10
136.2519884028383
 20
38.14616098023213
 10
137.0330072258183
 20
39.2189698332741
 10
137.4325440733681
 20
39.84331895947439
 10
137.8303336752289
 20
40.51251405835908
 10
138.2205518791041
 20
41.21548924056402
 10
138.5967921174672
 20
41.94117861672594
 10
138.9532302380221
 20
42.67909871271091
 10
139.2840420884716
 20
43.41818363915523
 10
139.5834035165192
 20
44.14736750669518
 10
139.8198640997628
 20
44.76763972628787
 10
139.8798528684181
 20
44.94469395610589
 10
139.8996549862268
 20
45.03322107101491
 10
139.8781056227294
 20
45.03322107101491
 10
139.8140399474664
 20
44.94469395610589
 10
139.7062931299783
 20
44.76763972628787
 10
139.5531179245766
 20
44.5014759663312
 10
139.3539319160314
 20
44.14736750669518
 10
138.451770725281
 20
42.58707710642402
 10
138.033014175152
 20
41.90798094863509
 10
137.6305652514541
 20
41.28712631381283
 10
137.2391822171194
 20
40.71810663443073
 10
136.8536233350815
 20
40.19451534296222
 10
136.4703941139625
 20
39.70936345665164
 10
136.0842528166947
 20
39.25624440797263
 10
135.6911225366713
 20
38.82875162939892
 10
135.4039918284466
 20
38.54569782778195
 10
135.2939153500401
 20
38.46008278902137
 10
135.1931575153081
 20
38.40999507927028
 10
135.0929820958058
 20
38.39426986806926
 10
134.9823232021694
 20
38.41174232495909
 10
134.8524446059542
 20
38.46008278902137
 10
134.6928628330261
 20
38.53870884502605
 10
134.4948416549404
 20
38.64645566251396
 10
133.842536597716
 20
39.15140966663312
 10
133.5658893636254
 20
39.48746325414957
 10
133.324769458544
 20
39.87535179710612
 10
133.1197592977025
 20
40.31216321935441
 10
132.9526061267887
 20
40.79498544474624
 10
132.8244747762626
 20
41.32090639713327
 10
132.736530076583
 20
41.88759641559691
 10
132.6905192734397
 20
42.49156100875889
 10
132.6567391901192
 20
43.36984317509307
 10
132.8594196900424
 20
43.13338259184926
 10
132.9432874831141
 20
43.04427306171056
 10
132.9805620578126
 20
43.0104929783901
 10
133.0143421411332
 20
42.98370187782556
 10
133.0452101483053
 20
42.96448217524646
 10
133.0720012488698
 20
42.95283387065341
 10
133.0947154428268
 20
42.94875696404561
 10
133.1145175606355
 20
42.95283387065341
 10
133.1296603566068
 20
42.96448217524646
 10
133.1558690419415
 20
43.03204234188761
 10
133.1710118379131
 20
43.09610801715068
 10
133.1867370491138
 20
43.17706373407411
 10
133.2030446755445
 20
43.27257983173903
 10
133.219352301975
 20
43.38090906445678
 10
133.2356599284057
 20
43.49855694084884
 10
133.2508027243769
 20
43.62435863045639
 10
133.264780689889
 20
43.75540205713109
 10
133.3008904341279
 20
44.02331306277658
 10
133.3212749671664
 20
44.1549389046808
 10
133.3428243306639
 20
44.28132300951792
 10
133.3649561093912
 20
44.39955330113984
 10
133.3865054728886
 20
44.50671770339822
 10
133.4080548363865
 20
44.60048655537405
 10
133.4284393694246
 20
44.67736536568996
 10
133.4476590720033
 20
44.73502447342649
 10
133.5554058894914
 20
44.98546302218237
 10
133.6707241049651
 20
44.75540900646494
 10
133.7132404167306
 20
44.67736536568996
 10
133.7353721954578
 20
44.64183803668031
 10
133.7575039741852
 20
44.60980519904881
 10
133.7790533376828
 20
44.58126685279528
 10
133.7988554554915
 20
44.55797024360861
 10
133.8174927428405
 20
44.54049778671854
 10
133.8332179540416
 20
44.52943189735499
 10
133.846031089094
 20
44.52593740597705
 10
133.8780639267257
 20
44.56262956544593
 10
133.9025253663716
 20
44.6092227838191
 10
133.9322285430845
 20
44.67212362862293
 10
133.9654262111751
 20
44.74900243893869
 10
134.0015359554145
 20
44.83869438430692
 10
134.0393929453426
 20
44.93828738857963
 10
134.0778323505005
 20
45.04661662129722
 10
134.1162717556583
 20
45.16077000631137
 10
134.3288533144859
 20
45.74202040551647
 10
134.4202925055433
 20
45.9557667948034
 10
134.5006658072371
 20
46.11593098296116
 10
134.5688083891076
 20
46.22134813953046
 10
134.6235554206963
 20
46.26968860359254
 10
134.663742071543
 20
46.25978754468836
 10
134.6887859264186
 20
46.19048013235827
 10
134.6975221548635
 20
46.05943670568372
 10
134.7103352899163
 20
45.90276700890398
 10
134.7243132554281
 20
45.8293826899662
 10
134.7423681275476
 20
45.76240493855475
 10
134.7633350758155
 20
45.70591066127728
 10
134.7854668545428
 20
45.66164710382297
 10
134.8087634637296
 20
45.63310875756921
 10
134.8314776576865
 20
45.62320769866495
 10
134.853027021184
 20
45.63369117279897
 10
134.8798181217485
 20
45.68028439117215
 10
134.9048619766241
 20
45.72571277908603
 10
134.9368948142556
 20
45.78395430205243
 10
134.9747518041839
 20
45.85326171438258
 10
135.0172681159494
 20
45.93188777038726
 10
135.0638613343225
 20
46.01808522437754
 10
135.1127842136143
 20
46.11127166112372
 10
135.1640367538249
 20
46.20853500447775
 10
135.3702117451261
 20
46.57196210778851
 10
135.4750464864658
 20
46.74202735485055
 10
135.5763867364273
 20
46.89927946686002
 10
135.6719028340922
 20
47.03789429152003
 10
135.7586827033124
 20
47.15437733745294
 10
135.8332318527094
 20
47.24406928282137
 10
135.8926382061351
 20
47.30172839055806
 10
135.934572102671
 20
47.32327775405564
 10
135.9514621443313
 20
47.30464046670642
 10
135.9584511270872
 20
47.28250868797919
 10
135.9654401098433
 20
47.25280551126643
 10
135.9706818469103
 20
47.21669576702713
 10
135.9753411687476
 20
47.17534428572098
 10
135.9788356601255
 20
47.12875106734769
 10
135.981165321044
 20
47.07866335759645
 10
135.9817477362738
 20
47.02624598692692
 10
135.9852422276518
 20
46.91733433897967
 10
135.9899015494891
 20
46.86782904445816
 10
135.9957257017858
 20
46.82240065654421
 10
136.0032970997711
 20
46.78163159046777
 10
136.0114509129868
 20
46.74726909191763
 10
136.0213519718911
 20
46.71931316089363
 10
136.0312530307953
 20
46.69951104308499
 10
136.0423189201591
 20
46.68786273849177
 10
136.0743517577904
 20
46.69077481463999
 10
136.095901121288
 20
46.70358794969267
 10
136.1203625609339
 20
46.72339006750125
 10
136.1471536614983
 20
46.7490163376065
 10
136.1762744229818
 20
46.78104917523806
 10
136.2059775996946
 20
46.81774133470695
 10
136.2356807764075
 20
46.8590928160131
 10
136.2653839531203
 20
46.90452120392676
 10
136.4715589444216
 20
47.18408051416604
 10
136.5991078797182
 20
47.34424470232362
 10
136.7330633825409
 20
47.50557372094074
 10
136.8641068092156
 20
47.65816651111275
 10
136.9858315922153
 20
47.79328684439504
 10
137.0895015030956
 20
47.90161607711245
 10
137.1675451438708
 20
47.9732531503614
 10
137.2112262860954
 20
47.9988794204667
 10
137.2292811582153
 20
47.98024213311736
 10
137.2374349714304
 20
47.95811035439011
 10
137.2450063694162
 20
47.92898959290686
 10
137.2519953521719
 20
47.89346226389726
 10
137.2578195044687
 20
47.85269319782069
 10
137.2618964110763
 20
47.80784722513662
 10
137.2648084872248
 20
47.75950676107441
 10
137.2653909024542
 20
47.70883663609366
 10
137.2683029786028
 20
47.60341947952421
 10
137.2717974699806
 20
47.55507901546216
 10
137.2758743765883
 20
47.51023304277803
 10
137.2811161136553
 20
47.47062880716088
 10
137.2863578507222
 20
47.43626630861068
 10
137.2927644182488
 20
47.40889279281633
 10
137.299170985775
 20
47.38850825977816
 10
137.3061599685307
 20
47.37744237041458
 10
137.3480938650668
 20
47.39142033592644
 10
137.3876981006838
 20
47.42054109740969
 10
137.4383682256647
 20
47.46247499394541
 10
137.4989394095497
 20
47.51605719507465
 10
137.5670819914206
 20
47.57954045510818
 10
137.6416311408176
 20
47.65175994358649
 10
137.7220044425113
 20
47.73155083005057
 10
137.8064546508126
 20
47.81658345358152
 10
137.9771023131046
 20
47.9948025138588
 10
138.0632997670947
 20
48.07925272216035
 10
138.1465851449366
 20
48.15846119339458
 10
138.2263760314009
 20
48.23126309710257
 10
138.2991779351088
 20
48.29532877236584
 10
138.3644084408314
 20
48.34891097349497
 10
138.4191554724196
 20
48.39026245480106
 10
138.4616717841849
 20
48.41821838582506
 10
138.6643522841086
 20
48.53295418606903
 10
138.6305722007879
 20
48.1747688198253
 10
138.6230008028022
 20
48.03382433424637
 10
138.623583218032
 20
47.9732531503614
 10
138.6264952941802
 20
47.91967094923215
 10
138.6323194464769
 20
47.87307773085909
 10
138.6398908444627
 20
47.83347349524176
 10
138.6503743185965
 20
47.80202307283995
 10
138.6631874536491
 20
47.77814404842364
 10
138.6777478343907
 20
47.76241883722271
 10
138.7324948659793
 20
47.77173748089738
 10
138.7755935929743
 20
47.79619892054337
 10
138.8285933788738
 20
47.83347349524176
 10
138.8909118084481
 20
47.88239637453357
 10
138.9608016360077
 20
47.94296755841877
 10
139.0382628615531
 20
48.01460463166738
 10
139.1221306546249
 20
48.09614276382045
 10
139.2118225999931
 20
48.18816437010745
 10
139.378975770907
 20
48.35531754102122
 10
139.4610963182896
 20
48.4339435970259
 10
139.5391399590646
 20
48.50674550073403
 10
139.6125242780024
 20
48.57255842168608
 10
139.678919614184
 20
48.62963511419308
 10
139.7365787219209
 20
48.67739316302577
 10
139.7843367707534
 20
48.71292049203519
 10
139.8198640997628
 20
48.73563468599217
 10
139.8984901557675
 20
48.77116201500165
 10
139.9246988411026
 20
48.77407409114981
 10
139.9433361284517
 20
48.76475544747539
 10
139.9555668482747
 20
48.73971159259967
 10
139.9631382462601
 20
48.69719528083438
 10
139.9672151528681
 20
48.6342944360304
 10
139.9683799833271
 20
48.54867939726988
 10
139.9683799833271
 20
48.43860291886322
 10
139.9724568899351
 20
48.26329593473428
 10
139.977698627002
 20
48.20097750516014
 10
139.986434855447
 20
48.15263704109806
 10
139.9992479904995
 20
48.11710971208846
 10
140.01555561693
 20
48.09264827244247
 10
140.0371049804278
 20
48.07692306124152
 10
140.0638960809922
 20
48.06876924802633
 10
140.097093749083
 20
48.06643958710769
 10
140.2491041240255
 20
48.09264827244247
 10
140.3457850521502
 20
48.1235162796148
 10
140.4535318696377
 20
48.16603259138019
 10
140.5705973308004
 20
48.21844996205008
 10
140.6952341899486
 20
48.28018597639438
 10
140.8256952013936
 20
48.35007580395419
 10
140.9602331194459
 20
48.42811944472934
 10
141.0971006984172
 20
48.51256965303072
 10
141.4552860646606
 20
48.74262366874813
 10
141.4552860646606
 20
46.90452120392676
 10
141.7191201636986
 20
47.11360827137655
 10
141.8588998188182
 20
47.22310233455333
 10
141.9060754524212
 20
47.25571758741462
 10
141.941020366201
 20
47.27377245953429
 10
141.9660642210765
 20
47.27843178137142
 10
141.9847015084257
 20
47.26969555292654
 10
141.9986794739378
 20
47.24814618942899
 10
142.0103277785312
 20
47.21378369087879
 10
142.0231409135837
 20
47.16777288773527
 10
142.0615803187414
 20
46.93713645678819
 10
142.06449239489
 20
46.80434578442457
 10
142.0563385816746
 20
46.65175299425247
 10
142.0353716334068
 20
46.47353393397525
 10
142.001591550086
 20
46.26328203606631
 10
141.9538335012535
 20
46.01459073299968
 10
141.8909326564499
 20
45.72105345724854
 10
141.8134714309045
 20
45.37742847174659
 10
141.8192955832011
 20
45.26968165425872
 10
141.8478339294547
 20
45.23997847754576
 10
141.8909326564499
 20
45.22600051203385
 10
141.9468445184977
 20
45.22833017295254
 10
142.0132398546794
 20
45.24638504507218
 10
142.0889538345359
 20
45.28074754362238
 10
142.1716567971481
 20
45.33083525337348
 10
142.2596014968275
 20
45.39723058955518
 10
142.4622819967507
 20
45.57311998891377
 10
142.4215129306742
 20
45.31627487263186
 10
142.3987987367173
 20
45.19163801348365
 10
142.3813262798272
 20
45.11009988133063
 10
142.3597769163299
 20
45.01924310550281
 10
142.3358978919137
 20
44.92081493168955
 10
142.309106791349
 20
44.81714502080943
 10
142.2805684450953
 20
44.71114544901043
 10
142.2502828531527
 20
44.60398104675208
 10
142.2188324307509
 20
44.49856389018286
 10
142.1204042569376
 20
44.09203805987696
 10
142.1035142152773
 20
43.95691772659482
 10
142.1087559523445
 20
43.86547853553763
 10
142.1372942985977
 20
43.81655565624565
 10
142.1902940844976
 20
43.80840184303046
 10
142.2683377252724
 20
43.84043468066202
 10
142.3720076361529
 20
43.9109069234514
 10
142.5030510628272
 20
44.01865374093931
 10
142.5950726691141
 20
44.09495013602547
 10
142.6329296590426
 20
44.12232365181971
 10
142.6655449119035
 20
44.14270818485765
 10
142.6917535972385
 20
44.15552131991056
 10
142.7127205455065
 20
44.1607630569775
 10
142.7272809262481
 20
44.15959822651813
 10
142.736017154693
 20
44.15027958284342
 10
142.7395116460711
 20
44.13397195641287
 10
142.7022370713727
 20
43.93478594786761
 10
142.6608855900663
 20
43.7915118013701
 10
142.6084682193966
 20
43.63018278275309
 10
142.5478970355115
 20
43.46069995092075
 10
142.4820841145592
 20
43.29121711908835
 10
142.4145239479184
 20
43.13163534616033
 10
142.3481286117363
 20
42.99069086058146
 10
142.2863925973921
 20
42.87653747556719
 10
142.2328103962629
 20
42.76820824284969
 10
142.2095137870764
 20
42.71520845695021
 10
142.1902940844976
 20
42.66453833196941
 10
142.1745688732964
 20
42.61736269836648
 10
142.1629205687032
 20
42.57426397137133
 10
142.1559315859471
 20
42.53757181190251
 10
142.1541843402582
 20
42.50728621995988
 10
142.1582612468659
 20
42.48515444123263
 10
142.215337939373
 20
42.41759427459162
 10
142.2584366663681
 20
42.40128664816096
 10
142.309106791349
 20
42.3960449110941
 10
142.3667658990857
 20
42.4024514786203
 10
142.4296667438896
 20
42.41992393551031
 10
142.4966444953007
 20
42.44846228176378
 10
142.5665343228605
 20
42.48806651738094
 10
142.6381713961096
 20
42.53873664236174
 10
142.8204673629944
 20
42.68084595839995
 10
142.7732917293916
 20
42.51893452455327
 10
142.7476654592864
 20
42.44787986653419
 10
142.7301930023965
 20
42.40478113953911
 10
142.7098084693581
 20
42.35877033639552
 10
142.6870942754012
 20
42.3104298723333
 10
142.663215250985
 20
42.26092457781179
 10
142.6375889808797
 20
42.21200169851998
 10
142.6107978803151
 20
42.16482606491733
  0
LWPOLYLINE
  5
37C
330
1F
100
AcDbEntity
  8
LOGO
100
AcDbPolyline
 90
      718
 70
     1
 43
0.0
 10
143.7732986787256
 20
43.03204234188761
 10
143.7360241040271
 20
43.14153640506463
 10
143.7202988928261
 20
43.20094275849029
 10
143.7069033425438
 20
43.26267877283491
 10
143.6964198684099
 20
43.32383237194948
 10
143.6888484704241
 20
43.38382114060498
 10
143.6841891485869
 20
43.44031541788244
 10
143.6830243181275
 20
43.49273278855228
 10
143.6853539790462
 20
43.53932600692544
 10
143.7150571557592
 20
44.03670861305879
 10
143.718551647137
 20
44.2376418672931
 10
143.7138923252999
 20
44.4100367752739
 10
143.7004967750175
 20
44.55797024360861
 10
143.6795298267496
 20
44.68318951798652
 10
143.6498266500367
 20
44.78977150501513
 10
143.6108048296492
 20
44.8806282808428
 10
143.5636291960461
 20
44.95808950638822
 10
143.4989811055535
 20
45.05360560405317
 10
143.4751020811375
 20
45.09903399196694
 10
143.4564647937881
 20
45.14271513419187
 10
143.4424868282761
 20
45.18581386118698
 10
143.4343330150608
 20
45.22774775772283
 10
143.4302561084531
 20
45.26851682379929
 10
143.430838523683
 20
45.30928588987587
 10
143.4354978455201
 20
45.3500549559523
 10
143.4459813196541
 20
45.56030685386126
 10
143.4343330150608
 20
45.68028439117215
 10
143.412783651563
 20
45.80375641986101
 10
143.3830804748503
 20
45.9243163724016
 10
143.3463883153814
 20
46.03788734218618
 10
143.3032895883863
 20
46.13864517691813
 10
143.2561139547835
 20
46.22251296998983
 10
143.2054438298026
 20
46.28250173864522
 10
143.1512792134439
 20
46.34714982913799
 10
143.1303122651761
 20
46.38558923429577
 10
143.112839808286
 20
46.42927037652071
 10
143.0994442580036
 20
46.48052291673105
 10
143.0895431990992
 20
46.54051168538653
 10
143.0825542163435
 20
46.60981909771662
 10
143.0784773097358
 20
46.6901923994104
 10
143.0773124792765
 20
46.78279642092717
 10
143.0540158700899
 20
47.11710276275441
 10
143.0266423542954
 20
47.28134385751995
 10
142.9887853643675
 20
47.44092563044794
 10
142.9421921459944
 20
47.59351842061993
 10
142.8868626991764
 20
47.73679256711743
 10
142.8239618543724
 20
47.86841840902165
 10
142.7546544420422
 20
47.98548387018432
 10
142.6783580469562
 20
48.0868241201458
 10
142.5962374995736
 20
48.19457093763388
 10
142.5636222467122
 20
48.24990038445195
 10
142.5356663156884
 20
48.30814190741851
 10
142.511787291272
 20
48.37046033699242
 10
142.4919851734635
 20
48.43743808840388
 10
142.4750951318032
 20
48.51082240734159
 10
142.4605347510617
 20
48.59177812426496
 10
142.4488864464685
 20
48.68147006963339
 10
142.3329858157653
 20
49.18991856513047
 10
142.2322279810332
 20
49.38269800614948
 10
142.1029318000475
 20
49.53412596586215
 10
141.9445148575787
 20
49.64536727472811
 10
141.7575595688566
 20
49.71525710228791
 10
141.5414835186512
 20
49.74496027900066
 10
141.2968691221921
 20
49.73389438963708
 10
141.02255154902
 20
49.68205943419694
 10
140.8746180806853
 20
49.65177384225437
 10
140.8140468968003
 20
49.64536727472811
 10
140.7581350347522
 20
49.64478485949853
 10
140.7045528336233
 20
49.65119142702481
 10
140.6503882172645
 20
49.66400456207747
 10
140.5927291095277
 20
49.68497151034528
 10
140.5286634342646
 20
49.71292744136928
 10
140.4552791153268
 20
49.7496196008381
 10
140.2351261585137
 20
49.84513569850306
 10
140.1366979847003
 20
49.87076196860822
 10
140.0417643022647
 20
49.88066302751268
 10
139.9456657893704
 20
49.87600370567524
 10
139.8454903698681
 20
49.85561917263708
 10
139.7371611371506
 20
49.81950942839789
 10
139.6171835998397
 20
49.76883930341704
 10
139.4820632665576
 20
49.70186155200552
 10
139.3154925108734
 20
49.61974100462298
 10
139.246767513773
 20
49.59062024313961
 10
139.1850314994286
 20
49.56907087964204
 10
139.1285372221511
 20
49.55509291413015
 10
139.0755374362516
 20
49.54810393137409
 10
139.0248673112708
 20
49.54752151614449
 10
138.9736147710603
 20
49.55392808367076
 10
138.9211974003905
 20
49.56674121872338
 10
138.733077281209
 20
49.58712575176171
 10
138.6311546160177
 20
49.57897193854636
 10
138.5234077985296
 20
49.55858740550819
 10
138.4121664896638
 20
49.52655456787666
 10
138.2968482741901
 20
49.48287342565173
 10
138.178617982568
 20
49.4275439788335
 10
138.0574756147982
 20
49.36114864265177
 10
137.9345860013388
 20
49.28310500187674
 10
137.7971360071381
 20
49.20040203926446
 10
137.7324879166452
 20
49.16720437117366
 10
137.6695870718416
 20
49.14041327060896
 10
137.6066862270376
 20
49.11828149188169
 10
137.5443677974637
 20
49.10139145022144
 10
137.4803021222006
 20
49.08974314562822
 10
137.4150716164781
 20
49.08275416287226
 10
137.3469290346076
 20
49.0804245019536
 10
137.1093036209042
 20
49.05945755368565
 10
136.9974798968087
 20
49.03266645312105
 10
136.8891506640911
 20
48.99480946319293
 10
136.7843159227516
 20
48.94646899913071
 10
136.6823932575601
 20
48.88706264570491
 10
136.5828002532875
 20
48.81659040291554
 10
136.4843720794742
 20
48.73446985553279
 10
136.3871087361203
 20
48.6412834187865
 10
136.2863509013884
 20
48.54576732112154
 10
136.2380104373261
 20
48.50791033119342
 10
136.1908348037233
 20
48.47587749356169
 10
136.1442415853501
 20
48.44966880822686
 10
136.0993956126661
 20
48.42986669041827
 10
136.0545496399818
 20
48.41588872490619
 10
136.0114509129868
 20
48.4071524964613
 10
135.9683521859916
 20
48.4048228355425
 10
135.7045180869535
 20
48.35881203239923
 10
135.5693977536714
 20
48.30231775512179
 10
135.4331125899298
 20
48.22485652957634
 10
135.2968274261883
 20
48.12701077099267
 10
135.1617070929062
 20
48.0093628946005
 10
135.028334005313
 20
47.87249531562927
 10
134.8984554090979
 20
47.71815527976819
 10
134.7720713042606
 20
47.54634278701722
 10
134.7132473660645
 20
47.46946397670147
 10
134.6812145284331
 20
47.43451906292158
 10
134.6491816908014
 20
47.40306864051966
 10
134.6177312683991
 20
47.3762775399552
 10
134.5880280916865
 20
47.35414576122797
 10
134.5600721606628
 20
47.33725571956772
 10
134.535610721017
 20
47.32677224543367
 10
134.5152261879787
 20
47.32327775405564
 10
134.3486554322945
 20
47.27901419660115
 10
134.2461503518736
 20
47.22950890207978
 10
134.137821119156
 20
47.16544322681669
 10
134.0294918864383
 20
47.09205890787898
 10
133.9258219755581
 20
47.0122680214149
 10
133.8326355388118
 20
46.92898264357289
 10
133.7545918980368
 20
46.84686209619012
 10
133.6975152055295
 20
46.76940087064467
 10
133.6456802500893
 20
46.67679684912807
 10
133.6188891495246
 20
46.62437947845837
 10
133.59268046419
 20
46.56905003164017
 10
133.5676366093145
 20
46.51313816959246
 10
133.5437575848983
 20
46.45664389231494
 10
133.5222082214007
 20
46.40247927595622
 10
133.5035709340514
 20
46.35064432051602
 10
133.4878457228503
 20
46.30288627168344
 10
133.4429997501662
 20
46.19048013235827
 10
133.4162086496015
 20
46.14330449875545
 10
133.3847582271998
 20
46.10137060221949
 10
133.3480660677308
 20
46.06293119706167
 10
133.3055497559653
 20
46.02740386805218
 10
133.2554620462143
 20
45.99478861519109
 10
133.1972205232478
 20
45.96275577755936
 10
133.1296603566068
 20
45.9313053551575
 10
132.9304743480616
 20
45.81016298738744
 10
132.8407824026931
 20
45.7303721009233
 10
132.7580794400807
 20
45.63835049463629
 10
132.6823654602242
 20
45.53409816852642
 10
132.6148052935833
 20
45.41819753782305
 10
132.5548165249279
 20
45.29123101775626
 10
132.5035639847172
 20
45.15378102355548
 10
132.4610476729518
 20
45.00526513999095
 10
132.3795095407988
 20
44.68085985706783
 10
132.0690822233875
 20
45.17416555659359
 10
131.4097881834073
 20
46.07050259504733
 10
131.0568445542308
 20
46.45606147708524
 10
130.6875932986235
 20
46.80085129304681
 10
130.3002871708966
 20
47.10603687339089
 10
129.893178925361
 20
47.37278304857714
 10
129.4668509772466
 20
47.60225464906496
 10
129.018391250405
 20
47.79503409008394
 10
128.5483821600658
 20
47.95170378686366
 10
128.1057465855206
 20
48.06294509572966
 10
127.8599673586022
 20
48.11245039025116
 10
127.6060343184685
 20
48.15671394770565
 10
127.3503540326459
 20
48.19457093763388
 10
127.0987506534306
 20
48.2260213600356
 10
126.8576307483497
 20
48.24990038445195
 10
126.6334008849288
 20
48.26446076519353
 10
126.4330500459243
 20
48.26970250226053
 10
126.1762049296422
 20
48.29882326374375
 10
126.0504032400348
 20
48.33376817752368
 10
125.9298432874942
 20
48.38094381112647
 10
125.8162723177094
 20
48.43918533409301
 10
125.71143757637
 20
48.50674550073403
 10
125.6182511396236
 20
48.58304189582009
 10
125.5378778379298
 20
48.66632727366209
 10
125.4732297474371
 20
48.75601921903046
 10
125.2816151368775
 20
49.00820501347516
 10
125.1406706512985
 20
49.16370987979561
 10
124.9793416326817
 20
49.33028063547959
 10
124.8046170637824
 20
49.49976346731194
 10
124.6234859273567
 20
49.66575180776647
 10
124.4435196213903
 20
49.82183908931642
 10
124.2717071286391
 20
49.9598714987469
 10
124.1150374318595
 20
50.07402488376138
 10
123.3252823804345
 20
50.5457812197894
 10
122.9298224394921
 20
50.7344837542007
 10
122.530868007172
 20
50.89231828143979
 10
122.1260894225552
 20
51.01986721673634
 10
121.7143218551823
 20
51.11829539054963
 10
121.2926532289052
 20
51.18818521810931
 10
120.8593362980349
 20
51.22895428418582
 10
120.4120414016525
 20
51.24293224969779
 10
119.5506492769788
 20
51.18177865058306
 10
119.1330575573093
 20
51.10606467072679
 10
118.724202066085
 20
50.99948268369804
 10
118.3240828033053
 20
50.86319751995649
 10
117.9338645994301
 20
50.69720917950229
 10
117.5518002087702
 20
50.50093524710525
 10
117.1796368770146
 20
50.27495813799541
 10
116.8167921889336
 20
50.0198602674024
 10
116.6018809691873
 20
49.8684323076896
 10
116.5034527953741
 20
49.80669629334511
 10
116.4091015281685
 20
49.75253167698628
 10
116.3176623371111
 20
49.70593845861316
 10
116.2268055612833
 20
49.66516939253674
 10
116.1353663702261
 20
49.63022447875681
 10
116.0421799334796
 20
49.59993888681435
 10
115.9449165901258
 20
49.57373020147935
 10
115.7340822769873
 20
49.52014800035027
 10
115.5884784695711
 20
49.47879651904412
 10
115.4219077138872
 20
49.42987363975231
 10
115.2384469165429
 20
49.37454419293413
 10
115.0427553993754
 20
49.31513783950851
 10
114.8389100689928
 20
49.25165457947492
 10
114.6315702472325
 20
49.18642407375242
 10
114.4248128407016
 20
49.12119356803003
 10
114.0048914601134
 20
48.98665564997765
 10
113.7946395622044
 20
48.92142514425512
 10
113.5896294013625
 20
48.86027154514039
 10
113.3956851298842
 20
48.8031948526332
 10
113.2168836543772
 20
48.75252472765248
 10
113.0573018814493
 20
48.70884358542764
 10
112.9221815481669
 20
48.67331625641805
 10
112.816181976368
 20
48.64768998631291
 10
112.113206794163
 20
48.44442707115991
 10
111.7672521477423
 20
48.30639466172939
 10
111.4253744079293
 20
48.14506564311222
 10
111.0899032356426
 20
47.96102243053826
 10
110.7614210461117
 20
47.75484743923709
 10
110.4410926697963
 20
47.52770549966789
 10
110.1300829371554
 20
47.28017902706056
 10
109.8295566786487
 20
47.01226802141491
 10
109.3578003426203
 20
46.5253688894154
 10
109.137647385807
 20
46.26794135790373
 10
108.9326372249651
 20
46.00585450455463
 10
108.7445171057836
 20
45.74435006643525
 10
108.5767815196402
 20
45.48692253492356
 10
108.4329249579131
 20
45.23823123185684
 10
108.3158594967505
 20
45.00177064861304
 10
108.2279147970712
 20
44.78220010702949
 10
108.1754974264013
 20
44.67561812000087
 10
108.1323986994061
 20
44.59932172491477
 10
108.0799813287363
 20
44.5113770252355
 10
108.0188277296216
 20
44.41411368188164
 10
107.9512675629805
 20
44.3098613557716
 10
107.8784656592725
 20
44.20094970782435
 10
107.801004433727
 20
44.08970839895835
 10
107.7212135472629
 20
43.97846709009252
 10
107.2343144152635
 20
43.26675567944249
 10
107.0194031955173
 20
42.92837243100748
 10
106.8213820174315
 20
42.5981429957877
 10
106.639668465776
 20
42.27490254332383
 10
106.4719328796327
 20
41.95573899746778
 10
106.3181752590011
 20
41.63948752775985
 10
106.176065942963
 20
41.32323605805192
 10
106.0450225162886
 20
41.00465492742557
 10
105.9611547232169
 20
40.82468862145924
 10
105.9081549373175
 20
40.72917252379423
 10
105.848166168662
 20
40.63074434998094
 10
105.7823532477098
 20
40.53056893047858
 10
105.7112985896908
 20
40.42922868051704
 10
105.6350021946049
 20
40.32788843055544
 10
105.554628892911
 20
40.22654818059374
 10
105.4707610998395
 20
40.12637276109148
 10
105.1073339965286
 20
39.69655032159915
 10
104.9553236215863
 20
39.50260605012073
 10
104.8196208730743
 20
39.31623317662832
 10
104.6955664291559
 20
39.13218996405402
 10
104.5802482136823
 20
38.94581709056149
 10
104.4707541505054
 20
38.75245523431295
 10
104.3630073330175
 20
38.54569782778197
 10
104.2540956850701
 20
38.32205037959085
 10
103.9984153992475
 20
37.72332752349573
 10
103.8999872254343
 20
37.43619681527116
 10
103.8201963389701
 20
37.15081335273544
 10
103.7567130789366
 20
36.86135298359221
 10
103.709537445334
 20
36.56373880123363
 10
103.6775046077024
 20
36.25156423813348
 10
103.6588673203532
 20
35.92075238768416
 10
103.6530431680564
 20
35.56489668235907
 10
103.7339988849799
 20
34.39365965550365
 10
103.8417457024678
 20
33.84735417007846
 10
103.9972505687881
 20
33.32201563292102
 10
104.2016783144003
 20
32.81240230696454
 10
104.4573586002232
 20
32.31327245514211
 10
104.7660386719454
 20
31.82054917084588
 10
105.1306306057153
 20
31.32899071700911
 10
105.5517168167626
 20
30.834520187024
 10
105.6821778282075
 20
30.67493841409589
 10
105.745661088241
 20
30.58815854487586
 10
105.8068146873557
 20
30.49904901473718
 10
105.8650562103224
 20
30.40819223890952
 10
105.9186384114514
 20
30.31733546308186
 10
105.9669788755134
 20
30.22822593294319
 10
106.009495187279
 20
30.14086364849357
 10
106.0450225162886
 20
30.05757827065156
 10
106.2727468710875
 20
29.52525075073822
 10
106.4142737718958
 20
29.23229589021691
 10
106.5709434686756
 20
28.92943997079135
 10
106.7380966395895
 20
28.62192472952853
 10
106.9145684541776
 20
28.31440948826566
 10
107.0962820058328
 20
28.01271839929939
 10
107.280325218407
 20
27.72267561492646
 10
107.4643684309811
 20
27.44894045698413
 10
107.6711258375118
 20
27.14142521572126
 10
107.7777078245405
 20
26.97601929049665
 10
107.8831249811097
 20
26.80770128912354
 10
107.9850476463011
 20
26.64171294866913
 10
108.0811461591958
 20
26.48038393005208
 10
108.1685084436452
 20
26.32895597033928
 10
108.2453872539611
 20
26.19092356090874
 10
108.3088705139946
 20
26.07036360836833
 10
108.5546497409129
 20
25.6201566358377
 10
108.6845283371282
 20
25.40873990746934
 10
108.8208135008697
 20
25.20489457708681
 10
108.9646700625966
 20
25.00629098377124
 10
109.1184276832282
 20
24.81059946660395
 10
109.2820863627637
 20
24.61665519512564
 10
109.4579757621225
 20
24.4221285084177
 10
109.6466782965338
 20
24.22585457602082
 10
110.328686530471
 20
23.60965926303572
 10
110.6816301596477
 20
23.34698999445703
 10
111.0468045086474
 20
23.11344148736163
 10
111.4253744079293
 20
22.90668408083082
 10
111.8219991793308
 20
22.72555294440497
 10
112.2378436533113
 20
22.56830083239584
 10
112.6764023212486
 20
22.4337629143431
 10
113.1405872592913
 20
22.32019194455848
 10
113.3968499603436
 20
22.25845593021421
 10
113.5517724114344
 20
22.21710444890795
 10
113.7195079975778
 20
22.17051123053477
 10
113.8948149817067
 20
22.11925869032427
 10
114.0741988724435
 20
22.0645116587358
 10
114.2530003479505
 20
22.00801738145839
 10
114.4277249168498
 20
21.95094068895122
 10
114.5937132573042
 20
21.89444641167376
 10
114.9262723534426
 20
21.78204027234853
 10
115.0928431091267
 20
21.72845807121934
 10
115.2559193734327
 20
21.67720553100901
 10
115.4102594092937
 20
21.63061231263589
 10
115.5535335557914
 20
21.58926083132957
 10
115.6816649063176
 20
21.55431591754967
 10
115.7905765542647
 20
21.52752481698513
 10
115.8773564234847
 20
21.5088875296359
 10
116.0625644665181
 20
21.46112948080338
 10
116.149344335738
 20
21.43084388886092
 10
116.2343769592691
 20
21.39589897508097
 10
116.3176623371111
 20
21.3557123242341
 10
116.4003652997236
 20
21.31028393632039
 10
116.4836506775656
 20
21.25903139610972
 10
116.5681008858668
 20
21.20137228837308
 10
116.6548807550868
 20
21.13730661310996
 10
117.791755283392
 20
20.42559520245987
 10
118.3829067415014
 20
20.16816767094827
 10
118.9868713346634
 20
19.97655306038848
 10
119.6013194019598
 20
19.8513337860108
 10
120.2239212824709
 20
19.79309226304423
 10
120.8540945609681
 20
19.80241090671893
 10
121.489509576532
 20
19.87812488657522
 10
122.128419083474
 20
20.02256386353213
 10
122.9315696851813
 20
20.31959563066113
 10
123.336348269798
 20
20.51761680874699
 10
123.7318082107405
 20
20.7430115026271
 10
124.1115429404815
 20
20.98937314477496
 10
124.466233815347
 20
21.25204241335376
 10
124.7883094373516
 20
21.52694240175555
 10
125.070780823739
 20
21.80766654245372
 10
125.3043293308345
 20
22.0901379288411
 10
125.5553502948198
 20
22.38891694165904
 10
125.6794047387385
 20
22.5036527419029
 10
125.8063712588051
 20
22.59742159387889
 10
125.9374146854798
 20
22.67138832804619
 10
126.0760295101398
 20
22.72613535963467
 10
126.2233805632451
 20
22.7639923495629
 10
126.3817975057137
 20
22.78612412829011
 10
126.554774828924
 20
22.79311311104613
 10
127.1837832769618
 20
22.82980527051496
 10
127.5064413141961
 20
22.87115675182127
 10
127.8296817666597
 20
22.92765102909868
 10
128.150592558205
 20
22.99812327188806
 10
128.4656791974535
 20
23.08199106495977
 10
128.7720296082568
 20
23.17867199308398
 10
129.0667317144673
 20
23.28758364103123
 10
129.3457086094763
 20
23.40814359357176
 10
130.0259695977245
 20
23.77448277303074
 10
130.3393089912839
 20
23.98531708616946
 10
130.6375055888724
 20
24.21711834757588
 10
130.9223066361784
 20
24.47105138770945
 10
131.1966242093504
 20
24.74944586748916
 10
131.4616231388476
 20
25.05346661737394
 10
131.7202155008186
 20
25.38486088305314
 10
131.9741485409521
 20
25.7459583254452
 10
132.1046095523971
 20
25.94223225784202
 10
132.1645983210528
 20
26.02959454229176
 10
132.2193453526411
 20
26.10763818306691
 10
132.2676858167034
 20
26.1751983497079
 10
132.3084548827797
 20
26.23052779652596
 10
132.3404877204113
 20
26.27187927783229
 10
132.3626194991386
 20
26.29808796316706
 10
132.3731029732726
 20
26.30682419161201
 10
132.3859161083251
 20
26.28876931949247
 10
132.3946523367701
 20
26.26780237122466
 10
132.4045533956744
 20
26.23926402497102
 10
132.4162017002678
 20
26.20431911119112
 10
132.4278500048609
 20
26.16355004511468
 10
132.4406631399135
 20
26.11870407243049
 10
132.4540586901957
 20
26.06919877790898
 10
132.4674542404781
 20
26.01619899200938
 10
132.5635527533728
 20
25.74712315590449
 10
132.6247063524875
 20
25.62423354244527
 10
132.6940137648176
 20
25.51066257266069
 10
132.7703101599038
 20
25.40815749223964
 10
132.8535955377458
 20
25.31613588595286
 10
132.9427050678844
 20
25.23634499948878
 10
133.0376387503196
 20
25.16994966330697
 10
133.1366493393626
 20
25.11753229263724
 10
133.2641982746593
 20
25.05463144783334
 10
133.3142859844104
 20
25.02085136451285
 10
133.3573847114056
 20
24.98415920504402
 10
133.394659286104
 20
24.94222530850817
 10
133.4272745389653
 20
24.89446725967559
 10
133.4575601309078
 20
24.83855539762789
 10
133.4860984771615
 20
24.77390730713506
 10
133.5152192386446
 20
24.69877574250842
 10
133.6287902084293
 20
24.4227109236474
 10
133.6975152055295
 20
24.30389821679586
 10
133.7743940158453
 20
24.19615139930795
 10
133.8605914698357
 20
24.09888805595398
 10
133.9566899827304
 20
24.01210818673377
 10
134.0621071392995
 20
23.93522937641819
 10
134.1785901852326
 20
23.8670867945475
 10
134.3055567052993
 20
23.8065156106623
 10
134.4593143259306
 20
23.73313129172459
 10
134.5292041534906
 20
23.69177981041844
 10
134.5950170744426
 20
23.64751625296378
 10
134.6573355040166
 20
23.60034061936113
 10
134.7149946117536
 20
23.54967049438034
 10
134.7691592281124
 20
23.49667070848085
 10
134.8198293530931
 20
23.44017643120338
 10
134.8664225714661
 20
23.38077007777759
 10
135.0784217150641
 20
23.12800186810318
 10
135.1867509477816
 20
23.02141988107473
 10
135.2968274261883
 20
22.92881585955797
 10
135.4080687350543
 20
22.85018980355324
 10
135.51931004392
 20
22.78495929783071
 10
135.6311337680158
 20
22.73487158807956
 10
135.7423750768817
 20
22.69934425907013
 10
135.853033970518
 20
22.67837731080226
 10
135.9916487951781
 20
22.65216862546743
 10
136.0545496399818
 20
22.63236650765884
 10
136.1151208238668
 20
22.60732265278318
 10
136.173944762063
 20
22.57645464561091
 10
136.2333511154889
 20
22.53918007091238
 10
136.2933398841443
 20
22.49433409822814
 10
136.3550758984888
 20
22.44191672755846
 10
136.4208888194408
 20
22.38076312844356
 10
136.6194924127565
 20
22.21069788138169
 10
136.7144260951917
 20
22.14546737565917
 10
136.8099421928568
 20
22.09188517453004
 10
136.9060407057514
 20
22.05053369322389
 10
137.0056337100237
 20
22.01908327082202
 10
137.1098860361338
 20
21.99811632255404
 10
137.22054492977
 20
21.98588560273112
 10
137.3399400518516
 20
21.98180869612333
 10
137.4669065719182
 20
21.9724900524489
 10
137.5286425862626
 20
21.96025933262593
 10
137.5915434310665
 20
21.94162204527657
 10
137.6550266911
 20
21.91774302086026
 10
137.720839612052
 20
21.88687501368816
 10
137.7901470243821
 20
21.84960043898974
 10
137.86294892809
 20
21.8047544663055
 10
137.9415749840948
 20
21.75233709563565
 10
138.1867717957836
 20
21.60789811867875
 10
138.3090789940131
 20
21.55373350231997
 10
138.4296389465536
 20
21.51121719055459
 10
138.5467044077164
 20
21.48151401384177
 10
138.6591105470416
 20
21.46462397218142
 10
138.7656925340702
 20
21.46112948080338
 10
138.8647031231132
 20
21.47103053970767
 10
138.9549774837109
 20
21.49549197935352
 10
139.0370980310938
 20
21.51645892762156
 10
139.0772846819405
 20
21.51878858854019
 10
139.1180537480171
 20
21.51471168193262
 10
139.1611524750122
 20
21.50481062302834
 10
139.206580862926
 20
21.48792058136803
 10
139.2566685726773
 20
21.46404155695171
 10
139.3119980194955
 20
21.43317354977938
 10
139.37373403384
 20
21.39415172939192
 10
139.6166011846098
 20
21.26369071794704
 10
139.7371611371506
 20
21.22292165187059
 10
139.8583035049207
 20
21.19729538176551
 10
139.9794458726909
 20
21.1879767380907
 10
140.1005882404611
 20
21.19380089038742
 10
140.2228954386906
 20
21.21593266911464
 10
140.3452026369204
 20
21.25320724381322
 10
140.4686746656091
 20
21.3062070297126
 10
140.6206850405514
 20
21.37201995066476
 10
140.6818386396662
 20
21.39298689893263
 10
140.7371680864846
 20
21.40754727967425
 10
140.7878382114653
 20
21.4145362624302
 10
140.8367610907571
 20
21.41570109288961
 10
140.8862663852786
 20
21.40987694059294
 10
140.9381013407186
 20
21.39822863599966
 10
140.9957604484556
 20
21.38075617910971
 10
141.2223199727951
 20
21.32484431706178
 10
141.339967849187
 20
21.31203118200932
 10
141.4576157255795
 20
21.30970152109063
 10
141.5735163562826
 20
21.31727291907612
 10
141.6853400803784
 20
21.33416296073654
 10
141.7913396521772
 20
21.36037164607137
 10
141.8886029955311
 20
21.39648139031073
 10
141.9753828647512
 20
21.44132736299486
 10
142.1413712052055
 20
21.57295320489897
 10
142.2106786175357
 20
21.65332650659269
 10
142.2712498014209
 20
21.74476569765005
 10
142.3230847568607
 20
21.84727077807094
 10
142.3667658990857
 20
21.96142416308521
 10
142.4017108128656
 20
22.08839068315211
 10
142.42908432866
 20
22.22758792304194
 10
142.4488864464685
 20
22.38076312844356
 10
142.4710182251956
 20
22.54267456229042
 10
142.4855786059372
 20
22.6143116355392
 10
142.5030510628272
 20
22.67954214126149
 10
142.5234355958655
 20
22.739530909917
 10
142.5467322050522
 20
22.79369552627577
 10
142.5735233056166
 20
22.84320082079734
 10
142.6038088975594
 20
22.88804679348135
 10
142.6381713961096
 20
22.92823344432822
 10
142.7989179994968
 20
23.1344084356295
 10
142.8624012595304
 20
23.24332008357675
 10
142.9154010454295
 20
23.35922071428001
 10
142.9596646028842
 20
23.48269274296876
 10
142.994609516664
 20
23.61723066102133
 10
143.0225654476882
 20
23.76458171412662
 10
143.0429499807261
 20
23.9259107327436
 10
143.0569279462382
 20
24.104129793021
 10
143.0773124792765
 20
24.34466728287231
 10
143.090125614329
 20
24.44193062622628
 10
143.1052684103003
 20
24.52579841929799
 10
143.1227408671901
 20
24.59801790777647
 10
143.1431254002287
 20
24.66033633735049
 10
143.1670044246447
 20
24.71333612324997
 10
143.194377940439
 20
24.75934692639345
 10
143.2258283628408
 20
24.8001159924699
 10
143.3242565366541
 20
24.94921429126407
 10
143.3644431875011
 20
25.04298314324007
 10
143.3982232708215
 20
25.14548822366112
 10
143.4250143713861
 20
25.25323504114903
 10
143.4430692435056
 20
25.36389393478515
 10
143.4523878871801
 20
25.47338799796217
 10
143.4523878871801
 20
25.57938756976108
 10
143.4419044130465
 20
25.67839815880416
 10
143.4325857693718
 20
25.77624391738777
 10
143.4343330150608
 20
25.82167230530149
 10
143.4407395825872
 20
25.86535344752639
 10
143.4518054719507
 20
25.90903458975123
 10
143.4681130983814
 20
25.95213331674631
 10
143.4896624618787
 20
25.9963968742008
 10
143.517035977673
 20
26.04240767734439
 10
143.5502336457641
 20
26.0907481414065
 10
143.6568156327925
 20
26.29692313270772
 10
143.6952550379506
 20
26.42214240708574
 10
143.7226285537445
 20
26.55784515559759
 10
143.739518595405
 20
26.70111930209504
 10
143.7453427477016
 20
26.8496351856594
 10
143.739518595405
 20
26.99989831491286
 10
143.7220461385152
 20
27.14841419847721
 10
143.6923429618022
 20
27.29343559066382
 10
143.6556508023333
 20
27.45301736359176
 10
143.6480794043477
 20
27.51999511500327
 10
143.647496989118
 20
27.58289595980699
 10
143.6544859718739
 20
27.64521438938101
 10
143.6684639373859
 20
27.71160972556277
 10
143.6905957161132
 20
27.78499404450059
 10
143.7208813080557
 20
27.87002666803159
 10
143.7599031284432
 20
27.96961967230425
 10
143.9084190120077
 20
28.32780503854804
 10
143.752914145687
 20
28.75355057143258
 10
143.6818594876682
 20
28.95856073227458
 10
143.6556508023333
 20
29.0534944147098
 10
143.6358486845248
 20
29.14668085145627
 10
143.6212883037831
 20
29.24044970343221
 10
143.6113872448788
 20
29.33829546201582
 10
143.6055630925824
 20
29.44254778812569
 10
143.6032334316634
 20
29.5549539274511
 10
143.6043982621228
 20
29.67900837136966
 10
143.607310338271
 20
29.92012827645061
 10
143.6032334316634
 20
30.01739161980469
 10
143.5939147879889
 20
30.10417148902472
 10
143.5793544072472
 20
30.18337996025894
 10
143.5583874589791
 20
30.25967635534498
 10
143.5298491127257
 20
30.33597275043109
 10
143.4937393684865
 20
30.41576363689517
 10
143.4488933958025
 20
30.50370833657443
 10
143.3755090768646
 20
30.66212527904325
 10
143.3481355610703
 20
30.7384216741293
 10
143.3254213671136
 20
30.81413565398565
 10
143.3079489102237
 20
30.89101446430139
 10
143.295135775171
 20
30.971387765995
 10
143.286399546726
 20
31.05642038952611
 10
143.2817402248887
 20
31.14785958058347
 10
143.2799929791996
 20
31.24687016962632
 10
143.2613556918505
 20
31.54506676721466
 10
143.2368942522046
 20
31.67552777865943
 10
143.2007845079652
 20
31.79608773119996
 10
143.1512792134439
 20
31.91082353144383
 10
143.0889607838699
 20
32.02148242508024
 10
143.0109171430947
 20
32.13039407302743
 10
142.9171482911186
 20
32.24105296666379
 10
142.8070718127121
 20
32.35520635167795
 10
142.6801052926454
 20
32.48624977835247
 10
142.6346769047311
 20
32.54216164040024
 10
142.5997319909516
 20
32.59516142629967
 10
142.5735233056166
 20
32.64757879696946
 10
142.5554684334969
 20
32.70174341332829
 10
142.5444025441334
 20
32.76114976675409
 10
142.5379959766071
 20
32.82696268770632
 10
142.5368311461476
 20
32.90267666756249
 10
142.5059631389756
 20
33.11817030253847
 10
142.4651940728991
 20
33.22882919617472
 10
142.4063701347026
 20
33.34298258118899
 10
142.3271616634685
 20
33.46354253372953
 10
142.2269862439662
 20
33.5922562994853
 10
142.1046790457365
 20
33.73087112414548
 10
141.9579104078612
 20
33.88055183816919
 10
141.7866803303399
 20
34.04479293293455
 10
141.3603523822256
 20
34.40763762101567
 10
141.1367049340344
 20
34.57246113101068
 10
140.904903672628
 20
34.72621875164224
 10
140.6632013523172
 20
34.87065772859897
 10
140.4110155578722
 20
35.00577806188106
 10
140.1465990436047
 20
35.13216216671832
 10
139.8687869790546
 20
35.2509748735698
 10
139.5764145337631
 20
35.36221618243575
 10
139.1512514161079
 20
35.51772104875617
 10
139.6171835998397
 20
35.70001701564136
 10
140.3399608998532
 20
36.02325746810509
 10
140.6789265635182
 20
36.20497101976032
 10
140.9998373550632
 20
36.39775046077919
 10
141.30036361357
 20
36.6010133759322
 10
141.5787580933496
 20
36.81301251953009
 10
141.8315263030241
 20
37.03141823065424
 10
142.0569209969042
 20
37.25564809407512
 10
142.2526125140716
 20
37.4839548641035
 10
142.383655940746
 20
37.66217392438095
 10
142.4314139895785
 20
37.73672307377801
 10
142.4686885642771
 20
37.80544807087846
 10
142.4960620800713
 20
37.87009616137111
 10
142.5152817826503
 20
37.93416183663423
 10
142.5280949177027
 20
37.9999747575864
 10
142.5345014852292
 20
38.06986458514602
 10
142.5368311461476
 20
38.14616098023213
 10
142.543237713674
 20
38.2940944485669
 10
142.5543036030377
 20
38.3546656324521
 10
142.5711936446979
 20
38.4105774944998
 10
142.5968199148031
 20
38.46357728039924
 10
142.6317648285831
 20
38.51657706629878
 10
142.6771932164968
 20
38.57365375880595
 10
142.7354347394633
 20
38.63597218837991
 10
142.8070718127121
 20
38.70760926162886
 10
143.0109171430947
 20
38.93183912504951
 10
143.0889607838699
 20
39.0407507729967
 10
143.1512792134439
 20
39.15082725140324
 10
143.2007845079652
 20
39.26498063641752
 10
143.2368942522046
 20
39.38495817372858
 10
143.2613556918505
 20
39.514254354714
 10
143.2753336573622
 20
39.65461642506317
 10
143.2799929791996
 20
39.80895646092419
 10
143.286399546726
 20
40.00115348671367
 10
143.295135775171
 20
40.08560369501502
 10
143.3085313254531
 20
40.16422975101959
 10
143.3265861975728
 20
40.2399437308761
 10
143.3498828067595
 20
40.31391046504334
 10
143.3790035682426
 20
40.38845961444043
 10
143.4139484820226
 20
40.46475600952662
 10
143.4558823785584
 20
40.54512931122018
 10
143.5391677564004
 20
40.71170006690413
 10
143.5671236874242
 20
40.78391955538275
 10
143.5869258052327
 20
40.85439179817207
 10
143.5997389402855
 20
40.92661128665052
 10
143.6055630925824
 20
41.00465492742556
 10
143.6049806773524
 20
41.09318204233447
 10
143.600321355515
 20
41.19568712275547
 10
143.5910027118406
 20
41.31566466006627
 10
143.5764423310991
 20
41.52766380366419
 10
143.5758599158692
 20
41.61677333380303
 10
143.5799368224768
 20
41.69772905072623
 10
143.5892554661516
 20
41.77227820012335
 10
143.6032334316634
 20
41.84391527337207
 10
143.6230355494721
 20
41.9138051009317
 10
143.647496989118
 20
41.984859758951
 10
143.67836499629
 20
42.05940890834789
 10
143.7837821528596
 20
42.33023199014188
 10
143.8169798209504
 20
42.44671503607484
 10
143.8385291844479
 20
42.55329702310347
 10
143.8484302433521
 20
42.65289002737602
 10
143.8461005824336
 20
42.74840612504116
 10
143.8327050321513
 20
42.84159256178729
 10
143.8082435925054
 20
42.93536141376328
  0
LINE
  5
3C6
330
1F
100
AcDbEntity
  8
POSTS
100
AcDbLine
 10
-10.0
 20
9.0
 30
0.0
 11
-3.000000000000004
 21
9.000000000000015
 31
0.0
  0
LINE
  5
3C7
330
1F
100
AcDbEntity
  8
POSTS
100
AcDbLine
 10
-1.0
 20
7.000000000000014
 30
0.0
 11
-1.0
 21
-0.0000000000000009
 31
0.0
  0
LINE
  5
3C8
330
1F
100
AcDbEntity
  8
POSTS
100
AcDbLine
 10
-10.0
 20
62.0
 30
0.0
 11
-3.0
 21
62.0
 31
0.0
  0
LINE
  5
3C9
330
1F
100
AcDbEntity
  8
POSTS
100
AcDbLine
 10
-1.0
 20
64.0
 30
0.0
 11
-0.9999999999999982
 21
71.0
 31
0.0
  0
LINE
  5
3CA
330
1F
100
AcDbEntity
  8
POSTS
100
AcDbLine
 10
143.5
 20
64.0
 30
0.0
 11
143.5
 21
71.0
 31
0.0
  0
LINE
  5
3CB
330
1F
100
AcDbEntity
  8
POSTS
100
AcDbLine
 10
152.5
 20
62.0
 30
0.0
 11
145.5
 21
62.0
 31
0.0
  0
LINE
  5
3CC
330
1F
100
AcDbEntity
  8
POSTS
100
AcDbLine
 10
152.5
 20
9.0
 30
0.0
 11
145.5
 21
9.000000000000012
 31
0.0
  0
LINE
  5
3CD
330
1F
100
AcDbEntity
  8
POSTS
100
AcDbLine
 10
143.5
 20
7.000000000000013
 30
0.0
 11
143.5
 21
0.0
 31
0.0
  0
ARC
  5
3CE
330
1F
100
AcDbEntity
  8
POSTS
100
AcDbCircle
 10
-3.0
 20
7.000000000000014
 30
0.0
 40
2.0
100
AcDbArc
 50
0.0
 51
90.0000000000001
  0
ARC
  5
3CF
330
1F
100
AcDbEntity
  8
POSTS
100
AcDbCircle
 10
-3.0
 20
64.0
 30
0.0
 40
2.0
100
AcDbArc
 50
270.0
 51
0.0
  0
ARC
  5
3D0
330
1F
100
AcDbEntity
  8
POSTS
100
AcDbCircle
 10
145.5
 20
64.0
 30
0.0
 40
2.0
100
AcDbArc
 50
180.0
 51
270.0
  0
ARC
  5
3D1
330
1F
100
AcDbEntity
  8
POSTS
100
AcDbCircle
 10
145.5
 20
7.000000000000013
 30
0.0
 40
2.0
100
AcDbArc
 50
89.99999999999987
 51
180.0
  0
LINE
  5
3D2
330
1F
100
AcDbEntity
  8
BOARD
100
AcDbLine
 10
73.0
 20
10.49999999999999
 30
0.0
 11
73.0
 21
60.5
 31
0.0
  0
CIRCLE
  5
3DB
330
1F
100
AcDbEntity
  8
STANDOFF
100
AcDbCircle
 10
53.00000000000001
 20
7.5
 30
0.0
 40
1.5
  0
CIRCLE
  5
3DC
330
1F
100
AcDbEntity
  8
STANDOFF
100
AcDbCircle
 10
53.00000000000001
 20
63.49999999999999
 30
0.0
 40
1.5
  0
CIRCLE
  5
3E4
330
1F
100
AcDbEntity
  8
STANDOFF
100
AcDbCircle
 10
27.5
 20
55.99999999999999
 30
0.0
 40
1.5
  0
CIRCLE
  5
3E5
330
1F
100
AcDbEntity
  8
STANDOFF
100
AcDbCircle
 10
27.5
 20
14.99999999999999
 30
0.0
 40
1.5
  0
LINE
  5
3E7
330
1F
100
AcDbEntity
  8
WALLS
100
AcDbLine
 10
-5.0
 20
0.0
 30
0.0
 11
147.5
 21
0.0
 31
0.0
  0
LINE
  5
3E8
330
1F
100
AcDbEntity
  8
WALLS
100
AcDbLine
 10
-5.000000000000002
 20
2.0
 30
0.0
 11
147.5
 21
2.0
 31
0.0
  0
LINE
  5
3E9
330
1F
100
AcDbEntity
  8
WALLS
100
AcDbLine
 10
-5.0
 20
69.0
 30
0.0
 11
147.5
 21
69.0
 31
0.0
  0
LINE
  5
3EA
330
1F
100
AcDbEntity
  8
WALLS
100
AcDbLine
 10
-5.0
 20
71.0
 30
0.0
 11
147.5
 21
71.0
 31
0.0
  0
LINE
  5
3F5
330
1F
100
AcDbEntity
  8
FEET
100
AcDbLine
 10
5.0
 20
70.99999999999997
 30
0.0
 11
50.49999999999998
 21
71.0
 31
0.0
  0
LINE
  5
3F6
330
1F
100
AcDbEntity
  8
FEET
100
AcDbLine
 10
50.5
 20
0.0
 30
0.0
 11
5.0
 21
0.0
 31
0.0
  0
LINE
  5
432
330
1F
100
AcDbEntity
  8
BOTTOM
100
AcDbLine
 10
-5.0
 20
71.0
 30
0.0
 11
147.5
 21
71.0
 31
0.0
  0
LINE
  5
433
330
1F
100
AcDbEntity
  8
BOTTOM
100
AcDbLine
 10
147.5
 20
0.0
 30
0.0
 11
-5.000000000000001
 21
0.0
 31
0.0
  0
LINE
  5
462
330
1F
100
AcDbEntity
  8
SD_CARD
100
AcDbLine
 10
146.5
 20
41.0
 30
0.0
 11
153.5
 21
40.99999999999999
 31
0.0
  0
LINE
  5
463
330
1F
100
AcDbEntity
  8
SD_CARD
100
AcDbLine
 10
146.5
 20
27.9999999999999
 30
0.0
 11
153.4999999999999
 21
27.9999999999999
 31
0.0
  0
LINE
  5
47D
330
1F
100
AcDbEntity
  8
FEET
100
AcDbLine
 10
92.0
 20
0.0
 30
0.0
 11
137.5
 21
0.0
 31
0.0
  0
LINE
  5
47E
330
1F
100
AcDbEntity
  8
FEET
100
AcDbLine
 10
137.5
 20
70.99999999999997
 30
0.0
 11
92.00000000000001
 21
71.0
 31
0.0
  0
LINE
  5
47F
330
1F
100
AcDbEntity
  8
FEET
100
AcDbLine
 10
122.9430249649994
 20
81.60000000000001
 30
0.0
 11
106.5569750350006
 21
81.60000000000007
 31
0.0
  0
LINE
  5
480
330
1F
100
AcDbEntity
  8
FEET
100
AcDbLine
 10
126.1394956610416
 20
80.44481145042814
 30
0.0
 11
137.5
 21
70.99999999999997
 31
0.0
  0
LINE
  5
481
330
1F
100
AcDbEntity
  8
FEET
100
AcDbLine
 10
103.3605043389584
 20
80.44481145042821
 30
0.0
 11
92.00000000000001
 21
71.0
 31
0.0
  0
CIRCLE
  5
482
330
1F
100
AcDbEntity
  8
FEET
100
AcDbCircle
 10
114.75
 20
76.60000000000005
 30
0.0
 40
1.5
  0
ARC
  5
483
330
1F
100
AcDbEntity
  8
FEET
100
AcDbCircle
 10
122.9430249649994
 20
76.60000000000002
 30
0.0
 40
5.0
100
AcDbArc
 50
50.26079464583039
 51
89.9999999999998
  0
ARC
  5
484
330
1F
100
AcDbEntity
  8
FEET
100
AcDbCircle
 10
106.5569750350006
 20
76.60000000000007
 30
0.0
 40
5.0
100
AcDbArc
 50
89.9999999999998
 51
129.7392053541698
  0
ARC
  5
485
330
1F
100
AcDbEntity
  8
FEET
100
AcDbCircle
 10
106.5569750350006
 20
-5.600000000000096
 30
0.0
 40
5.0
100
AcDbArc
 50
230.2607946458302
 51
270.0000000000002
  0
ARC
  5
486
330
1F
100
AcDbEntity
  8
FEET
100
AcDbCircle
 10
122.9430249649994
 20
-5.600000000000044
 30
0.0
 40
5.0
100
AcDbArc
 50
270.0000000000002
 51
309.7392053541696
  0
CIRCLE
  5
487
330
1F
100
AcDbEntity
  8
FEET
100
AcDbCircle
 10
114.75
 20
-5.600000000000072
 30
0.0
 40
1.5
  0
LINE
  5
488
330
1F
100
AcDbEntity
  8
FEET
100
AcDbLine
 10
103.3605043389583
 20
-9.444811450428222
 30
0.0
 11
92.0
 21
0.0
 31
0.0
  0
LINE
  5
489
330
1F
100
AcDbEntity
  8
FEET
100
AcDbLine
 10
126.1394956610416
 20
-9.444811450428183
 30
0.0
 11
137.5
 21
0.0
 31
0.0
  0
LINE
  5
48A
330
1F
100
AcDbEntity
  8
FEET
100
AcDbLine
 10
122.9430249649994
 20
-10.60000000000004
 30
0.0
 11
106.5569750350006
 21
-10.60000000000009
 31
0.0
  0
ENDSEC
  0
SECTION
  2
OBJECTS
  0
DICTIONARY
  5
C
330
0
100
AcDbDictionary
281
     1
  3
ACAD_COLOR
350
6B
  3
ACAD_GROUP
350
D
  3
ACAD_LAYOUT
350
1A
  3
ACAD_MATERIAL
350
6A
  3
ACAD_MLINESTYLE
350
17
  3
ACAD_PLOTSETTINGS
350
19
  3
ACAD_PLOTSTYLENAME
350
E
  3
ACDBHEADERROUNDTRIPXREC
350
4B7
  3
AcDbVariableDictionary
350
5E
  0
DICTIONARY
  5
6B
102
{ACAD_REACTORS
330
C
102
}
330
C
100
AcDbDictionary
281
     1
  0
DICTIONARY
  5
D
102
{ACAD_REACTORS
330
C
102
}
330
C
100
AcDbDictionary
281
     1
  0
DICTIONARY
  5
1A
102
{ACAD_REACTORS
330
C
102
}
330
C
100
AcDbDictionary
281
     1
  3
Layout1
350
51
  3
Layout2
350
56
  3
Model
350
22
  0
DICTIONARY
  5
6A
102
{ACAD_REACTORS
330
C
102
}
330
C
100
AcDbDictionary
281
     1
  0
DICTIONARY
  5
17
102
{ACAD_REACTORS
330
C
102
}
330
C
100
AcDbDictionary
281
     1
  3
Standard
350
18
  0
DICTIONARY
  5
19
102
{ACAD_REACTORS
330
C
102
}
330
C
100
AcDbDictionary
281
     1
  0
ACDBDICTIONARYWDFLT
  5
E
102
{ACAD_REACTORS
330
C
102
}
330
C
100
AcDbDictionary
281
     1
  3
Normal
350
F
100
AcDbDictionaryWithDefault
340
F
  0
DICTIONARY
  5
4B7
102
{ACAD_REACTORS
330
C
102
}
330
C
100
AcDbDictionary
281
     1
  3
COLORDICT
350
4B9
  3
MATERIALDICT
350
4B8
  0
DICTIONARY
  5
5E
102
{ACAD_REACTORS
330
C
102
}
330
C
100
AcDbDictionary
281
     1
  3
DIMASSOC
350
5F
  3
HIDETEXT
350
63
  3
PROJECTNAME
350
81
  0
LAYOUT
  5
51
102
{ACAD_XDICTIONARY
360
4BC
102
}
102
{ACAD_REACTORS
330
1A
102
}
330
1A
100
AcDbPlotSettings
  1

  2
None
  4

  6

 40
0.0
 41
0.0
 42
0.0
 43
0.0
 44
0.0
 45
0.0
 46
0.0
 47
0.0
 48
0.0
 49
0.0
140
0.0
141
0.0
142
1.0
143
1.0
 70
   688
 72
     0
 73
     0
 74
     5
  7

 75
    16
147
1.0
148
0.0
149
0.0
100
AcDbLayout
  1
Layout1
 70
     1
 71
     1
 10
0.0
 20
0.0
 11
12.0
 21
9.0
 12
0.0
 22
0.0
 32
0.0
 14
0.0
 24
0.0
 34
0.0
 15
0.0
 25
0.0
 35
0.0
146
0.0
 13
0.0
 23
0.0
 33
0.0
 16
1.0
 26
0.0
 36
0.0
 17
0.0
 27
1.0
 37
0.0
 76
     0
330
50
  0
LAYOUT
  5
56
102
{ACAD_XDICTIONARY
360
4BE
102
}
102
{ACAD_REACTORS
330
1A
102
}
330
1A
100
AcDbPlotSettings
  1

  2
None
  4

  6

 40
0.0
 41
0.0
 42
0.0
 43
0.0
 44
0.0
 45
0.0
 46
0.0
 47
0.0
 48
0.0
 49
0.0
140
0.0
141
0.0
142
1.0
143
1.0
 70
   688
 72
     0
 73
     0
 74
     5
  7

 75
    16
147
1.0
148
0.0
149
0.0
100
AcDbLayout
  1
Layout2
 70
     1
 71
     2
 10
0.0
 20
0.0
 11
12.0
 21
9.0
 12
0.0
 22
0.0
 32
0.0
 14
0.0
 24
0.0
 34
0.0
 15
0.0
 25
0.0
 35
0.0
146
0.0
 13
0.0
 23
0.0
 33
0.0
 16
1.0
 26
0.0
 36
0.0
 17
0.0
 27
1.0
 37
0.0
 76
     0
330
55
  0
LAYOUT
  5
22
102
{ACAD_XDICTIONARY
360
4BA
102
}
102
{ACAD_REACTORS
330
1A
102
}
330
1A
100
AcDbPlotSettings
  1

  2
none_device
  4
ANSI_A_(8.50_x_11.00_Inches)
  6

 40
6.349999904632567
 41
19.04999923706055
 42
6.350006103515625
 43
19.04998779296875
 44
215.8999938964844
 45
279.3999938964844
 46
0.0
 47
0.0
 48
0.0
 49
0.0
140
0.0
141
0.0
142
1.0
143
78.436453180766
 70
 11952
 72
     0
 73
     1
 74
     0
  7

 75
     0
147
0.0127491741332998
148
0.0
149
0.0
100
AcDbLayout
  1
Model
 70
     1
 71
     0
 10
0.0
 20
0.0
 11
12.0
 21
9.0
 12
0.0
 22
0.0
 32
0.0
 14
0.0
 24
0.0
 34
0.0
 15
0.0
 25
0.0
 35
0.0
146
0.0
 13
0.0
 23
0.0
 33
0.0
 16
1.0
 26
0.0
 36
0.0
 17
0.0
 27
1.0
 37
0.0
 76
     0
330
1F
  0
MLINESTYLE
  5
18
102
{ACAD_REACTORS
330
17
102
}
330
17
100
AcDbMlineStyle
  2
STANDARD
 70
     0
  3

 62
   256
 51
90.0
 52
90.0
 71
     2
 49
0.5
 62
   256
  6
BYLAYER
 49
-0.5
 62
   256
  6
BYLAYER
  0
ACDBPLACEHOLDER
  5
F
102
{ACAD_REACTORS
330
E
102
}
330
E
  0
XRECORD
  5
4B9
102
{ACAD_REACTORS
330
4B7
102
}
330
4B7
100
AcDbXrecord
280
     1
340
6B
  0
XRECORD
  5
4B8
102
{ACAD_REACTORS
330
4B7
102
}
330
4B7
100
AcDbXrecord
280
     1
340
6A
  0
DICTIONARYVAR
  5
5F
102
{ACAD_REACTORS
330
5E
102
}
330
5E
100
DictionaryVariables
280
     0
  1
2
  0
DICTIONARYVAR
  5
63
102
{ACAD_REACTORS
330
5E
102
}
330
5E
100
DictionaryVariables
280
     0
  1
1
  0
DICTIONARYVAR
  5
81
102
{ACAD_REACTORS
330
5E
102
}
330
5E
100
DictionaryVariables
280
     0
  1

  0
DICTIONARY
  5
4BC
330
51
100
AcDbDictionary
280
     1
281
     1
  3
ACAD_XREC_ROUNDTRIP
360
4BD
  0
DICTIONARY
  5
4BE
330
56
100
AcDbDictionary
280
     1
281
     1
  3
ACAD_XREC_ROUNDTRIP
360
4BF
  0
DICTIONARY
  5
4BA
330
22
100
AcDbDictionary
280
     1
281
     1
  3
ACAD_XREC_ROUNDTRIP
360
4BB
  0
XRECORD
  5
4BD
102
{ACAD_REACTORS
330
4BC
102
}
330
4BC
100
AcDbXrecord
280
     1
102
SHADEPLOT
 70
     0
102
SHADEPLOTRESLEVEL
 70
     2
102
SHADEPLOTCUSTOMDPI
 70
   300
  0
XRECORD
  5
4BF
102
{ACAD_REACTORS
330
4BE
102
}
330
4BE
100
AcDbXrecord
280
     1
102
SHADEPLOT
 70
     0
102
SHADEPLOTRESLEVEL
 70
     2
102
SHADEPLOTCUSTOMDPI
 70
   300
  0
XRECORD
  5
4BB
102
{ACAD_REACTORS
330
4BA
102
}
330
4BA
100
AcDbXrecord
280
     1
102
SHADEPLOT
 70
     0
102
SHADEPLOTRESLEVEL
 70
     2
102
SHADEPLOTCUSTOMDPI
 70
   300
  0
ENDSEC
  0
EOF
